<svg width="192" height="40" viewBox="0 0 192 40" fill="none" xmlns="http://www.w3.org/2000/svg">
<path d="M69.4574 32.7127C69.3929 32.6643 69.3606 32.6321 69.3445 32.5998C69.3768 32.6321 69.409 32.6805 69.4574 32.7127Z" fill="#0A3D62"/>
<path d="M81.2649 34.3899C80.8132 34.777 80.2809 35.1319 79.6841 35.4868C79.3938 35.1319 78.555 34.777 76.8452 34.4544C75.458 34.2447 73.0707 33.8253 71.8447 33.6156H71.8286C71.6189 33.5834 71.4576 33.5511 71.3286 33.535C71.2641 33.5188 71.1995 33.5188 71.1511 33.5027C71.135 33.5027 71.1189 33.5027 71.1028 33.5027H71.0866H71.0705C69.6026 33.164 69.1994 32.4865 69.1832 32.4381C69.2316 32.5026 69.28 32.551 69.3445 32.6155C69.3768 32.6478 69.4252 32.6801 69.4575 32.7285C69.5704 32.8252 69.6833 32.922 69.8285 33.0188L69.9414 32.9704L72.5868 32.0671L77.5872 30.3573C77.5872 30.325 84.2168 31.8735 81.2649 34.3899Z" fill="#0A3D62"/>
<path d="M71.1028 33.4866C71.1834 33.5027 71.4577 33.5511 71.8448 33.6156C71.5544 33.5834 71.3125 33.5511 71.1028 33.4866Z" fill="#0A3D62"/>
<path d="M80.0713 24.1469C79.6035 24.4373 72.6674 26.9052 72.6674 26.9052C72.6674 26.9052 71.1834 27.244 70.022 28.1634C69.9091 28.0182 69.7317 27.6795 69.7478 27.1149L78.2324 24.1308L79.8777 23.5824C79.9422 23.7276 80.039 23.9211 80.0713 24.1469Z" fill="#0A3D62"/>
<path d="M83.6844 34.3419C83.7167 35.3581 82.2166 36.5517 79.2486 37.5357C78.6033 37.7454 77.8775 37.9551 77.071 38.1486C76.4903 38.2777 75.8773 38.4067 75.2321 38.5358C73.2481 38.8906 71.7157 39.0197 70.5543 39.0197C68.8929 39.0197 68.0218 38.7939 67.7153 38.6971C67.6347 38.6648 67.5863 38.6487 67.5863 38.6487C68.5057 38.6809 69.5542 38.6003 70.6511 38.4551C71.9092 38.2777 73.2319 38.0035 74.5224 37.6325C75.4257 37.3744 76.2967 37.084 77.1355 36.7453C78.071 36.3743 78.9421 35.9549 79.7163 35.5194C80.3132 35.1645 80.8455 34.8096 81.2971 34.4225C84.249 31.9062 77.6033 30.3577 77.6033 30.3577L72.6028 32.0675L69.9575 32.9708L69.8446 33.0192C69.6994 32.9224 69.5865 32.8256 69.4736 32.7288C69.4413 32.6966 69.3929 32.6482 69.3606 32.6159C69.2961 32.5514 69.2477 32.503 69.1993 32.4385C68.4896 31.5836 68.667 30.6641 68.667 30.6641C68.6832 29.5673 69.2961 28.7446 70.0381 28.1639C71.1995 27.2606 72.6835 26.9058 72.6835 26.9058C72.6835 26.9058 79.6196 24.4378 80.0873 24.1475C80.1035 24.1313 80.1196 24.1313 80.1196 24.1313V29.4866L78.184 30.148C83.2328 31.6642 83.636 33.003 83.6844 34.3419Z" fill="#C0C0C0"/>
<path d="M144.754 28.6316C143.399 27.9057 142.351 26.9056 141.576 25.6152C140.802 24.3248 140.415 22.873 140.415 21.2439C140.415 19.6147 140.802 18.163 141.576 16.8725C142.351 15.5821 143.415 14.582 144.754 13.8562C146.109 13.1303 147.625 12.7593 149.303 12.7593C150.722 12.7593 152.013 13.0012 153.158 13.5013C154.303 14.0013 155.271 14.7111 156.045 15.6628L153.61 17.9049C152.497 16.6306 151.126 15.9854 149.496 15.9854C148.48 15.9854 147.577 16.2112 146.787 16.6467C145.996 17.0984 145.367 17.7113 144.932 18.5017C144.48 19.2921 144.27 20.1954 144.27 21.2116C144.27 22.2278 144.496 23.1311 144.932 23.9215C145.383 24.7119 145.996 25.341 146.787 25.7765C147.577 26.2282 148.48 26.4379 149.496 26.4379C151.142 26.4379 152.513 25.7926 153.61 24.5022L156.045 26.7443C155.271 27.696 154.303 28.4219 153.142 28.9219C151.981 29.422 150.69 29.6639 149.271 29.6639C147.625 29.7285 146.109 29.3575 144.754 28.6316Z" fill="#C0C0C0"/>
<path d="M98.5566 13.3237H102.347V29.7122H98.5566V13.3237Z" fill="#0A3D62"/>
<path d="M14.4044 29.7283H18.3725L11.0493 13.3237H7.30707L0 29.7283H3.88742L4.90364 27.2443H4.91977L5.33916 26.2119L7.56515 20.8727L9.16206 17.0499L10.1944 19.5823L12.9527 26.2119L13.2592 26.9539L13.2753 27.0184L14.4044 29.7283Z" fill="#0A3D62"/>
<path d="M170.789 29.7283H174.773L167.433 13.3237H163.691L156.384 29.7283H160.272L161.304 27.2443L161.723 26.2119H161.739L163.965 20.8727L165.546 17.0499L166.595 19.5823L169.337 26.2119L169.643 26.9539L169.676 27.0184L170.789 29.7283Z" fill="#C0C0C0"/>
<path d="M19.5016 13.3237H23.2923V26.6313H31.5188V29.7283H19.5016V13.3237Z" fill="#0A3D62"/>
<path d="M63.715 29.7283L63.6988 19.8888L58.8758 27.9863H57.166L52.3592 20.0985V29.7283H48.7944V13.3237H51.9398L58.0693 23.502L64.1182 13.3237H67.2314L67.2798 29.7122H63.715V29.7283Z" fill="#0A3D62"/>
<path d="M135.705 29.7283L135.689 19.8888L130.866 27.9863H129.156L124.349 20.0985V29.7283H120.784V13.3237H123.93L130.059 23.502L136.108 13.3237H139.221L139.27 29.7122H135.705V29.7283Z" fill="#0A3D62"/>
<path d="M192 13.3237V29.7122H188.887L180.709 19.7598V29.7122H176.966V13.3237H180.112L188.258 23.2762V13.3237H192Z" fill="#C0C0C0"/>
<path d="M96.7339 13.3237V29.7122H93.6208L85.4427 19.7598V29.7122H81.7004V13.3237H84.8458L92.9917 23.2762V13.3237H96.7339Z" fill="#0A3D62"/>
<path d="M34.4706 27.7765C33.1641 26.4861 32.5189 24.6311 32.5189 22.2276V13.0495H36.3095V22.0825C36.3095 25.0182 37.5193 26.4861 39.955 26.4861C41.1325 26.4861 42.0519 26.1312 42.6649 25.4215C43.294 24.7117 43.6004 23.5987 43.6004 22.0825V13.0495H47.3427V22.2276C47.3427 24.6311 46.6975 26.4861 45.3909 27.7765C44.0843 29.0669 42.2616 29.7121 39.9227 29.7121C37.5999 29.7283 35.7772 29.0669 34.4706 27.7765Z" fill="#0A3D62"/>
<path d="M106.202 27.7765C104.896 26.4861 104.251 24.6311 104.251 22.2276V13.0495H108.041V22.0825C108.041 25.0182 109.251 26.4861 111.687 26.4861C112.864 26.4861 113.784 26.1312 114.397 25.4215C115.026 24.7117 115.332 23.5987 115.332 22.0825V13.0495H119.091V22.2276C119.091 24.6311 118.445 26.4861 117.139 27.7765C115.832 29.0669 114.01 29.7121 111.671 29.7121C109.332 29.7283 107.509 29.0669 106.202 27.7765Z" fill="#0A3D62"/>
<path d="M78.5066 15.1948C78.184 14.5335 78.184 11.9849 78.0066 10.4364C77.8291 8.88785 76.9904 3.25834 76.9904 3.25834C76.9742 3.14543 76.9904 3.12929 77.0226 3.04864C77.0872 2.83895 77.2323 2.62925 77.2001 2.40343C77.1678 2.03243 76.8936 1.50013 76.9581 1.37108C76.9904 1.32269 77.2162 1.16139 77.2162 1.16139C77.2162 1.16139 77.0388 0.241956 76.7645 0.161304C76.2 0.0161304 75.4096 0 74.9095 0C74.4095 0 73.6191 0.0161304 73.0546 0.161304C72.8932 0.209695 72.7481 0.564566 72.6674 0.838782C72.7319 0.693609 72.861 0.370999 72.9578 0.322608C73.1513 0.209695 74.0708 0.161303 74.5547 0.193564C74.716 0.209695 74.845 0.354871 74.8612 0.516174C74.8773 0.645218 74.8934 0.806519 74.8612 1.04848C74.7321 1.04848 74.5869 1.04848 74.4579 1.04848C74.4418 0.612955 74.3127 0.387128 74.2966 0.387128C74.2643 0.387128 74.1353 0.612956 74.1192 1.06461C73.9901 1.06461 73.8611 1.06461 73.7482 1.08074C73.732 0.75813 73.6352 0.580695 73.6191 0.580695C73.603 0.580695 73.5062 0.75813 73.4901 1.08074C73.3772 1.08074 73.2643 1.09686 73.1513 1.09686C73.1352 0.838778 73.0868 0.693605 73.0707 0.693605C73.0546 0.693605 72.99 0.838778 72.99 1.09686C72.8449 1.11299 72.7158 1.113 72.5868 1.12913C72.5868 1.12913 72.8126 1.29043 72.8449 1.33882C72.9255 1.46786 72.6513 2.00017 72.6029 2.37117C72.5868 2.58086 72.6997 2.77443 72.7642 2.96799C73.7804 2.98412 74.7966 3.01638 75.8129 3.09704C74.8128 3.11317 73.8127 3.14543 72.8287 3.22608C72.8287 3.22608 71.99 8.83945 71.8125 10.4041C71.6351 11.9526 71.6351 14.5012 71.3125 15.1626C70.9899 15.8239 69.5865 16.6788 69.5865 19.3081C69.5865 19.5016 69.6833 19.8565 69.6833 20.5017C69.6833 21.1308 69.6833 23.2116 69.6833 25.6151C69.6833 25.6151 69.6833 25.6151 69.6994 25.6151V27.0829L69.7317 27.0668L78.2163 24.0827L79.8616 23.5342L80.1358 23.4375V23.3891L80.2003 19.4855C80.2003 19.421 80.2164 19.3726 80.2164 19.3403C80.2326 16.7111 78.8292 15.8562 78.5066 15.1948ZM75.3451 1.08074C75.3612 0.645218 75.4902 0.419391 75.5225 0.419391C75.5548 0.419391 75.6838 0.645218 75.6999 1.08074C75.587 1.08074 75.458 1.08074 75.3451 1.08074ZM76.0709 1.09686C76.0871 0.774257 76.1838 0.596826 76.2 0.596826C76.2161 0.596826 76.3129 0.774257 76.329 1.09686C76.2322 1.11299 76.1516 1.09686 76.0709 1.09686Z" fill="#C0C0C0"/>
</svg>
