<svg width="40" height="40" viewBox="0 0 40 40" fill="none" xmlns="http://www.w3.org/2000/svg">
<path opacity="0.5" fill-rule="evenodd" clip-rule="evenodd" d="M20 39C30.4934 39 39 30.4934 39 20C39 9.50659 30.4934 1 20 1C9.50659 1 1 9.50659 1 20C1 30.4934 9.50659 39 20 39Z" stroke="white"/>
<path d="M22.0933 15.3233H23.7017C23.8497 15.3233 23.9698 15.1988 23.9698 15.0454V13.3782C23.9698 13.2248 23.8497 13.1003 23.7017 13.1003H22.0933C20.4678 13.1003 19.1446 14.4713 19.1446 16.1569V18.102H17.2682C17.1202 18.102 17.0001 18.2264 17.0001 18.3798V20.047C17.0001 20.2004 17.1202 20.3249 17.2682 20.3249H19.1446V26.1601C19.1446 26.3135 19.2647 26.438 19.4127 26.438H21.0211C21.169 26.438 21.2891 26.3135 21.2891 26.1601V20.3249H23.1656C23.2808 20.3249 23.3832 20.2482 23.4202 20.1348L23.9564 18.4676C23.9837 18.3832 23.9698 18.2898 23.9194 18.217C23.8684 18.1448 23.788 18.102 23.7017 18.102H21.2891V16.1569C21.2891 15.6973 21.6499 15.3233 22.0933 15.3233Z" fill="white"/>
</svg>
