<svg width="68" height="68" viewBox="0 0 68 68" fill="none" xmlns="http://www.w3.org/2000/svg">
<circle cx="33.9999" cy="34.0004" r="32.6923" fill="#00C6B8"/>
<mask id="mask0_553_168" style="mask-type:alpha" maskUnits="userSpaceOnUse" x="0" y="0" width="68" height="68">
<rect y="68" width="68" height="68" transform="rotate(-90 0 68)" fill="#D9D9D9"/>
</mask>
<g mask="url(#mask0_553_168)">
</g>
<path d="M41.4375 21.2501C41.4391 21.5298 41.3855 21.807 41.2797 22.0659C41.174 22.3248 41.0182 22.5603 40.8212 22.7588L31.0675 32.4913C30.8683 32.6889 30.7102 32.9239 30.6023 33.1829C30.4945 33.4418 30.4389 33.7196 30.4389 34.0001C30.4389 34.2806 30.4945 34.5584 30.6023 34.8173C30.7102 35.0763 30.8683 35.3113 31.0675 35.5088L40.8212 45.2413C41.2214 45.6415 41.4462 46.1842 41.4462 46.7501C41.4462 47.316 41.2214 47.8587 40.8212 48.2588C40.4211 48.659 39.8784 48.8838 39.3125 48.8838C39.0323 48.8838 38.7548 48.8286 38.4959 48.7214C38.2371 48.6141 38.0019 48.457 37.8037 48.2588L28.0712 38.5051C26.9077 37.294 26.2578 35.6796 26.2578 34.0001C26.2578 32.3206 26.9077 30.7062 28.0712 29.4951L37.8037 19.7413C38.0013 19.5422 38.2363 19.3841 38.4953 19.2762C38.7542 19.1683 39.032 19.1128 39.3125 19.1128C39.593 19.1128 39.8708 19.1683 40.1297 19.2762C40.3887 19.3841 40.6237 19.5422 40.8212 19.7413C41.0182 19.9399 41.174 20.1754 41.2797 20.4343C41.3855 20.6932 41.4391 20.9704 41.4375 21.2501Z" fill="white"/>
</svg>
