<svg width="68" height="68" viewBox="0 0 68 68" fill="none" xmlns="http://www.w3.org/2000/svg">
<circle cx="32.6923" cy="32.6923" r="32.6923" transform="matrix(-1 0 0 1 66.6924 1.30811)" fill="#00C6B8"/>
<mask id="mask0_553_175" style="mask-type:alpha" maskUnits="userSpaceOnUse" x="0" y="0" width="68" height="68">
<rect width="68" height="68" transform="matrix(4.37114e-08 -1 -1 -4.37114e-08 68 68)" fill="#D9D9D9"/>
</mask>
<g mask="url(#mask0_553_175)">
</g>
<path d="M26.5625 21.2501C26.5609 21.5298 26.6145 21.807 26.7203 22.0659C26.826 22.3248 26.9818 22.5603 27.1788 22.7588L36.9325 32.4913C37.1317 32.6889 37.2898 32.9239 37.3977 33.1829C37.5055 33.4418 37.5611 33.7196 37.5611 34.0001C37.5611 34.2806 37.5055 34.5584 37.3977 34.8173C37.2898 35.0763 37.1317 35.3113 36.9325 35.5088L27.1788 45.2413C26.7786 45.6415 26.5538 46.1842 26.5538 46.7501C26.5538 47.316 26.7786 47.8587 27.1788 48.2588C27.5789 48.659 28.1216 48.8838 28.6875 48.8838C28.9677 48.8838 29.2452 48.8286 29.5041 48.7214C29.7629 48.6141 29.9981 48.457 30.1963 48.2588L39.9288 38.5051C41.0923 37.294 41.7422 35.6796 41.7422 34.0001C41.7422 32.3206 41.0923 30.7062 39.9288 29.4951L30.1963 19.7413C29.9987 19.5422 29.7637 19.3841 29.5047 19.2762C29.2458 19.1683 28.968 19.1128 28.6875 19.1128C28.407 19.1128 28.1292 19.1683 27.8703 19.2762C27.6113 19.3841 27.3763 19.5422 27.1788 19.7413C26.9818 19.9399 26.826 20.1754 26.7203 20.4343C26.6145 20.6932 26.5609 20.9704 26.5625 21.2501Z" fill="white"/>
</svg>
