<svg width="40" height="40" viewBox="0 0 40 40" fill="none" xmlns="http://www.w3.org/2000/svg">
<path opacity="0.5" fill-rule="evenodd" clip-rule="evenodd" d="M20 39C30.4934 39 39 30.4934 39 20C39 9.50659 30.4934 1 20 1C9.50659 1 1 9.50659 1 20C1 30.4934 9.50659 39 20 39Z" stroke="white"/>
<path d="M15.4837 16.2637C16.303 16.2637 16.9672 15.533 16.9672 14.6317C16.9672 13.7304 16.303 12.9998 15.4837 12.9998C14.6643 12.9998 14.0001 13.7304 14.0001 14.6317C14.0001 15.533 14.6643 16.2637 15.4837 16.2637Z" fill="white"/>
<path d="M16.7198 17.3547H14.2473C14.1108 17.3547 14 17.4766 14 17.6267V25.7865C14 25.9367 14.1108 26.0585 14.2473 26.0585H16.7198C16.8563 26.0585 16.9671 25.9367 16.9671 25.7865V17.6267C16.9671 17.4766 16.8563 17.3547 16.7198 17.3547Z" fill="white"/>
<path d="M24.0876 16.9009C23.0308 16.5027 21.7089 16.8525 20.9162 17.4797C20.889 17.3627 20.7921 17.2757 20.6769 17.2757H18.2043C18.0678 17.2757 17.957 17.3976 17.957 17.5477V25.7075C17.957 25.8577 18.0678 25.9795 18.2043 25.9795H20.6769C20.8134 25.9795 20.9241 25.8577 20.9241 25.7075V19.8433C21.3237 19.4647 21.8385 19.3439 22.2598 19.5409C22.6683 19.7307 22.9022 20.1942 22.9022 20.8116V25.7075C22.9022 25.8577 23.013 25.9795 23.1495 25.9795H25.622C25.7585 25.9795 25.8693 25.8577 25.8693 25.7075V20.2638C25.8411 18.0286 24.8852 17.2012 24.0876 16.9009Z" fill="white"/>
</svg>
