<svg width="40" height="40" viewBox="0 0 40 40" fill="none" xmlns="http://www.w3.org/2000/svg">
<path opacity="0.5" fill-rule="evenodd" clip-rule="evenodd" d="M20 39C30.4934 39 39 30.4934 39 20C39 9.50659 30.4934 1 20 1C9.50659 1 1 9.50659 1 20C1 30.4934 9.50659 39 20 39Z" stroke="white"/>
<path d="M26.2677 16.4873C26.1795 16.3877 26.0373 16.3626 25.9207 16.4241C25.8482 16.4623 25.7119 16.5124 25.55 16.5619C25.7542 16.2827 25.9184 15.97 25.9909 15.6889C26.0223 15.5678 25.9764 15.4401 25.8766 15.3679C25.7769 15.2963 25.644 15.2963 25.5442 15.3679C25.387 15.4807 24.6282 15.8196 24.1484 15.9294C23.0641 14.9526 21.8023 14.8511 20.4906 15.6388C19.4243 16.2791 19.1922 17.5811 19.2375 18.3748C16.7968 18.1331 15.2798 16.8072 14.4258 15.7098C14.366 15.6328 14.2697 15.5923 14.1792 15.5982C14.0841 15.6054 13.9982 15.6597 13.9495 15.7438C13.5457 16.445 13.4338 17.2201 13.6269 17.9857C13.7325 18.4034 13.917 18.7716 14.1311 19.0699C14.0284 19.018 13.9292 18.953 13.8358 18.8754C13.7499 18.8026 13.6298 18.7889 13.5283 18.8372C13.4274 18.8867 13.363 18.9918 13.363 19.1069C13.363 20.4215 14.1624 21.2987 14.9091 21.7569C14.7884 21.742 14.6625 21.7146 14.5354 21.6746C14.4264 21.6406 14.308 21.6746 14.2326 21.7629C14.1572 21.8506 14.1392 21.9759 14.1862 22.0828C14.6056 23.0369 15.4004 23.6933 16.3838 23.9314C15.5252 24.4499 14.3759 24.7041 13.3235 24.5794C13.1872 24.5597 13.0572 24.6486 13.0143 24.7835C12.9714 24.9184 13.0277 25.0663 13.1477 25.1356C14.7443 26.0575 16.1877 26.3869 17.435 26.3869C19.2503 26.3869 20.6513 25.6899 21.5041 25.1069C23.8032 23.5376 25.2362 20.7199 25.0366 18.1987C25.405 17.9189 25.9561 17.4021 26.2978 16.8466C26.3686 16.7344 26.3558 16.5864 26.2677 16.4873Z" fill="white"/>
</svg>
