<svg width="1049" height="1591" viewBox="0 0 1049 1591" fill="none" xmlns="http://www.w3.org/2000/svg">
<mask id="mask0_602_955" style="mask-type:luminance" maskUnits="userSpaceOnUse" x="0" y="0" width="1979" height="1591">
<path d="M362.394 7.90316e-05L1978.93 579.831L1616.54 1590.17L0.000198353 1010.34L362.394 7.90316e-05Z" fill="white"/>
</mask>
<g mask="url(#mask0_602_955)">
<path d="M800.956 1534.16C923.583 1512.8 1016.86 1486.8 1078.13 1456.87C1133.38 1429.89 1164.39 1398.82 1170.27 1364.55C1177.94 1319.84 1144.41 1269.36 1067.76 1210.24C1001.98 1159.5 916.72 1111.52 841.471 1069.2C754.958 1020.52 680.246 978.488 685.736 957.651C688.67 946.547 714.003 941.22 763.201 941.397C833.4 941.649 839.277 939.698 839.474 937.305C839.754 933.916 823.818 930.914 760.822 920.497C622.5 897.612 334.671 850.019 330.597 766.637C327.729 707.999 465.383 641.061 739.709 567.657C1166.68 453.444 1247.19 343.615 1239.57 271.574C1228.14 163.383 1014.63 86.4828 866.626 78.9619C781.485 74.6504 728.328 92.7582 720.793 128.644L722.36 128.978C729.706 93.937 782.262 76.2976 866.528 80.5689C1013.98 88.0501 1226.61 164.388 1237.97 271.728C1245.52 343.129 1165.15 452.167 739.345 566.067C593.707 605.032 485.482 642.569 417.675 677.613C357.481 708.727 327.672 738.676 329.035 766.67C330.813 803.296 386.16 837.197 493.515 867.448C583.078 892.686 689.91 910.342 760.611 922.041C802.053 928.9 834.951 934.337 837.808 937.118C833.723 939.986 780.831 939.807 763.245 939.748C712.519 939.57 687.405 945.113 684.204 957.215C678.395 979.261 750.017 1019.55 840.707 1070.57C986.336 1152.5 1185.78 1264.73 1168.7 1364.24C1162.91 1397.97 1132.19 1428.64 1077.43 1455.39C1016.28 1485.25 923.171 1511.21 800.694 1532.53L800.956 1534.16Z" fill="#BE0CA4"/>
<path d="M812.032 1547.91C931.536 1526.55 1022.57 1500.46 1082.58 1470.28C1136.75 1443.07 1167.34 1411.69 1173.55 1377.02C1191.98 1274.09 994.694 1158.26 850.645 1073.7C761.934 1021.61 691.874 980.469 697.698 959.273C700.783 948.064 725.599 942.78 773.552 943.058C842.362 943.495 848.131 941.528 848.362 939.102C848.685 935.66 833.015 932.548 771.203 921.758C635.472 898.069 353.046 848.765 348.938 763.637C346.062 703.811 480.84 635.864 749.582 561.688C1169.15 445.895 1247.47 336.485 1239.3 265.09C1227.14 158.852 1019.65 85.3404 876.271 79.4113C791.614 75.912 738.861 95.0543 731.521 131.922L733.097 132.236C740.268 96.2202 792.439 77.5536 876.201 81.0054C1019.02 86.915 1225.64 159.864 1237.71 265.271C1245.8 336.046 1167.61 444.658 749.155 560.144C606.496 599.516 500.474 637.524 434.067 673.115C375.118 704.699 345.943 735.172 347.313 763.716C349.122 801.083 403.438 835.823 508.811 866.959C596.693 892.94 701.535 911.251 770.909 923.34C810.077 930.182 844.01 936.104 846.641 938.941C842.854 941.87 790.814 941.54 773.542 941.435C724.068 941.136 699.464 946.656 696.126 958.823C689.962 981.221 760.492 1022.64 849.812 1075.07C993.459 1159.41 1190.18 1274.9 1171.95 1376.72C1165.83 1410.88 1135.52 1441.85 1081.85 1468.83C1021.98 1498.92 931.096 1524.98 811.742 1546.3L812.032 1547.91Z" fill="#9E78BC"/>
<path d="M822.903 1561.98C939.324 1540.64 1028.14 1514.41 1086.91 1484.03C1139.99 1456.61 1170.19 1424.92 1176.73 1389.86C1196.33 1284.59 1001.68 1165.37 859.551 1078.31C772.177 1024.78 703.16 982.511 709.346 960.942C712.568 949.669 736.862 944.379 783.596 944.813C851.044 945.424 856.725 943.447 856.95 940.974C857.294 937.471 841.913 934.257 781.216 923.091C648.063 898.571 370.953 847.548 366.823 760.633C363.908 699.584 495.924 630.623 759.164 555.638C1169.67 438.736 1245.44 329.94 1236.72 259.239C1223.7 153.627 1018.76 82.4684 877.574 77.9401C793.001 75.2237 740.396 95.3539 733.245 133.156L734.828 133.45C741.81 96.4995 793.827 76.8652 877.524 79.5415C1018.14 84.0704 1222.2 154.686 1235.12 259.441C1243.77 329.502 1168.13 437.5 758.758 554.101C494.684 629.312 362.288 698.821 365.246 760.706C367.059 798.827 420.432 834.415 523.795 866.45C610.037 893.188 712.896 912.133 780.97 924.668C819.561 931.782 852.959 937.923 855.317 940.821C851.827 943.812 800.612 943.344 783.646 943.211C735.431 942.771 711.337 948.269 707.814 960.507C701.296 983.256 770.755 1025.82 858.732 1079.71C1000.47 1166.51 1194.55 1285.41 1175.16 1389.59C1168.71 1424.16 1138.78 1455.45 1086.18 1482.63C1027.55 1512.94 938.87 1539.1 822.62 1560.42L822.903 1561.98Z" fill="#C40818"/>
<path d="M833.612 1576.38C946.977 1555.04 1033.62 1528.71 1091.16 1498.12C1143.18 1470.48 1173.01 1438.49 1179.86 1403.05C1200.7 1295.37 1008.6 1172.64 868.326 1083.03C782.255 1028.03 714.249 984.595 720.796 962.655C724.184 951.303 747.96 946.056 793.49 946.605C859.596 947.396 865.168 945.404 865.429 942.897C865.787 939.354 850.72 936.025 791.146 924.464C660.464 899.096 388.56 846.337 384.377 757.602C381.449 695.316 510.699 625.295 768.579 549.482C1171.75 430.975 1245.09 320.786 1235.63 249.246C1229.29 201.36 1182.95 155.386 1105.1 119.821C1036.83 88.6288 952.368 69.007 879.173 67.3155C797.969 65.4427 747.483 86.1505 740.669 124.097L742.251 124.39C748.897 87.2961 798.795 67.0842 879.136 68.9443C952.127 70.6312 1036.34 90.1862 1104.43 121.313C1181.75 156.642 1227.77 202.161 1234.02 249.468C1240.15 295.842 1209.41 343.133 1142.63 390.015C1064.81 444.639 938.808 497.785 768.125 547.95C509.451 624.004 379.802 694.566 382.773 757.688C384.601 796.59 437.005 833.039 538.459 866.008C623.122 893.524 724.044 913.098 790.845 926.066C828.819 933.438 861.683 939.798 863.796 942.745C860.576 945.809 810.205 945.212 793.54 945.004C746.557 944.436 722.952 949.904 719.292 962.206C712.393 985.32 780.84 1029.05 867.486 1084.42C1007.37 1173.8 1198.93 1296.17 1178.29 1402.78C1171.53 1437.73 1141.97 1469.34 1090.4 1496.74C1033.01 1527.24 946.495 1553.52 833.3 1574.83L833.612 1576.38Z" fill="#B65A0E"/>
<path d="M844.15 1591.06C954.48 1569.72 1038.99 1543.29 1095.35 1512.51C1146.3 1484.67 1175.8 1452.4 1182.98 1416.6C1205.11 1306.46 1015.47 1180.13 876.996 1087.85C792.175 1031.34 725.175 986.69 732.103 964.384C735.648 952.975 758.915 947.751 803.261 948.422C868.045 949.401 873.536 947.379 873.804 944.852C874.209 941.052 855.383 937.014 800.926 925.873C672.694 899.652 405.849 845.126 401.626 754.529C398.672 690.98 525.23 619.879 777.806 543.213C1174.31 422.864 1245.21 310.27 1234.86 237.02C1219.27 126.61 1014.25 53.4122 879.958 51.5187C803.367 50.4565 755.76 71.4672 749.345 109.191L750.934 109.465C757.201 72.5999 804.227 52.0649 879.949 53.1345C1013.67 55.0085 1217.8 127.656 1233.29 237.256C1240.01 284.73 1210.31 333.056 1145.06 380.876C1068.96 436.639 945.255 490.747 777.385 541.716C524.016 618.623 397.058 690.264 400.055 754.65C401.892 794.354 453.353 831.65 552.959 865.576C636.05 893.851 735.109 914.102 800.638 927.503C838.414 935.237 871.033 941.897 872.243 944.817C870.103 947.858 819.831 947.114 803.316 946.869C757.538 946.185 734.45 951.611 730.612 963.963C723.311 987.435 790.76 1032.36 876.15 1089.26C1014.24 1181.26 1203.36 1307.27 1181.46 1416.34C1174.35 1451.68 1145.14 1483.57 1094.62 1511.18C1038.43 1541.88 954.072 1568.25 843.892 1589.56L844.15 1591.06Z" fill="#D01212"/>
<path d="M854.518 1606.1C961.88 1584.76 1044.26 1558.23 1099.41 1527.27C1149.33 1499.24 1178.47 1466.7 1186 1430.52C1209.46 1317.85 1022.19 1187.78 885.46 1092.81C801.856 1034.74 735.82 988.866 743.138 966.176C746.833 954.729 769.61 949.534 812.771 950.328C876.166 951.492 881.674 949.363 881.967 946.891C882.415 943.038 863.938 938.85 810.453 927.352C684.604 900.274 422.743 843.933 418.495 751.435C415.523 686.602 539.444 614.395 786.839 536.851C1176.92 414.584 1245.35 299.463 1234.05 224.412C1226.45 173.931 1179.59 125.603 1102.08 88.3815C1034.8 56.0641 950.194 35.7736 881.287 35.415C808.85 35.0444 763.836 56.3923 757.79 93.9754L759.387 94.2289C765.304 57.512 809.73 36.66 881.298 37.0381C949.98 37.3848 1034.33 57.6288 1101.39 89.8463C1178.41 126.846 1224.96 174.719 1232.47 224.669C1239.79 273.269 1211.17 322.666 1147.41 371.477C1073.02 428.426 951.549 483.563 786.377 535.34C538.202 613.152 413.889 685.879 416.904 751.548C418.755 791.85 468.766 829.881 565.516 864.583C566.021 864.765 566.526 864.946 567.052 865.134C648.624 894.211 745.801 915.132 810.125 928.967C847.243 936.945 879.293 943.856 880.394 946.828C878.353 949.974 829.029 949.067 812.834 948.755C768.878 947.949 745.604 953.513 741.661 965.714C733.965 989.523 800.435 1035.72 884.588 1094.16C1020.95 1188.89 1207.71 1318.59 1184.46 1430.22C1177.02 1465.91 1148.17 1498.09 1098.65 1525.88C1043.65 1556.76 961.406 1583.22 854.234 1604.53L854.518 1606.1Z" fill="#8E48AA"/>
<path d="M864.723 1621.46C969.125 1600.11 1049.44 1573.5 1103.41 1542.36C1152.32 1514.16 1181.1 1481.35 1188.97 1444.86C1213.85 1329.6 1028.85 1195.67 893.786 1097.89C811.352 1038.22 746.248 991.078 754.008 968.044C757.873 956.568 780.153 951.423 822.138 952.32C884.259 953.665 889.678 951.527 889.987 949.015C890.455 945.1 872.341 940.793 819.796 928.901C696.289 900.953 439.296 842.8 435.018 748.352C432.014 682.208 553.354 608.871 795.657 530.389C1179.54 406.081 1245.47 288.33 1233.2 211.451C1224.93 159.725 1177.94 110.301 1100.84 72.2946C1033.79 39.2352 950.36 18.8423 883.103 19.0983C814.414 19.3422 771.749 41.008 766.024 78.5238L767.62 78.7772C773.197 42.1205 815.294 20.9578 883.094 20.7141C1009.61 20.2519 1213.12 96.1927 1231.59 211.74C1239.55 261.53 1212 312.017 1149.74 361.867C1077.03 420.056 957.724 476.267 795.168 528.891C552.092 607.62 430.38 681.485 433.427 748.466C435.295 789.8 484.915 828.922 580.872 864.755C660.966 894.646 756.336 916.219 819.447 930.509C855.941 938.764 887.457 945.895 888.387 948.897C886.453 952.126 838.069 951.078 822.16 950.731C779.389 949.803 756.591 955.31 752.471 967.561C744.352 991.721 809.87 1039.17 892.845 1099.24C1027.56 1196.78 1212.05 1330.34 1187.41 1444.57C1179.64 1480.6 1151.1 1513.06 1102.62 1541.03C1048.78 1572.08 968.636 1598.61 864.404 1619.93L864.723 1621.46Z" fill="#C27EA2"/>
<path d="M874.783 1637.15C976.285 1615.81 1054.53 1589.12 1107.35 1557.84C1155.25 1529.46 1183.7 1496.42 1191.91 1459.62C1218.23 1341.73 1035.44 1203.8 901.992 1103.11C820.723 1041.78 756.517 993.348 764.679 969.957C768.695 958.443 790.498 953.355 831.326 954.361C892.201 955.875 897.532 953.728 897.875 951.183C898.386 947.215 880.574 942.765 829.008 930.495C707.802 901.662 455.565 841.634 451.263 745.217C448.242 677.721 567.028 603.239 804.334 523.809C964.556 470.188 1081.92 412.759 1153.14 353.144C1214.41 301.846 1241.07 249.668 1232.32 198.068C1223.36 145.158 1176.31 94.6666 1099.82 55.8932C1033.14 22.1022 950.974 1.61574 885.388 2.42563C819.117 3.24035 779.595 24.665 774.129 62.7298L775.713 62.9558C781.07 25.7645 820.025 4.84308 885.406 4.02856C950.741 3.21977 1032.61 23.6452 1099.1 57.3233C1175.11 95.8548 1221.88 145.926 1230.75 198.324C1239.37 249.311 1212.92 300.99 1152.11 351.885C1081.05 411.374 963.877 468.713 803.839 522.263C565.78 601.948 446.623 676.957 449.673 745.262C451.556 787.445 500.273 827.498 594.49 864.303C673.085 895.002 766.721 917.276 828.668 932.015C864.558 940.555 895.531 947.925 896.311 950.964C895.121 953.137 873.284 953.743 831.398 952.699C789.783 951.662 767.462 957.111 763.206 969.36C754.665 993.869 819.257 1042.63 901.075 1104.34C1034.19 1204.76 1216.49 1342.31 1190.39 1459.21C1182.28 1495.57 1154.08 1528.27 1106.56 1556.4C1053.89 1587.59 975.805 1614.23 874.481 1635.52L874.783 1637.15Z" fill="#CC32B8"/>
<path d="M884.673 1653.2C983.303 1631.85 1059.51 1605.12 1111.2 1573.69C1158.11 1545.15 1186.23 1511.88 1194.79 1474.79C1222.6 1354.15 1041.94 1212.15 910.02 1108.46C829.854 1045.45 766.542 995.666 775.133 971.905C779.312 960.381 800.619 955.343 840.31 956.466C899.951 958.176 905.222 956.007 905.579 953.422C906.116 949.509 889.499 945.031 837.995 932.145C719.03 902.405 471.472 840.521 467.122 742.079C464.084 673.231 580.384 597.539 812.762 517.162C970.576 462.564 1085.86 403.953 1155.44 342.977C1215.26 290.538 1240.79 237.161 1231.32 184.322C1221.65 130.27 1174.59 78.7451 1098.83 39.2551C1032.63 4.76873 951.824 -15.8227 887.924 -14.4993C824.759 -13.1865 787.13 8.55265 781.927 46.7117L783.518 46.9175C788.586 9.64493 825.666 -11.5838 887.942 -12.8965C951.59 -14.2187 1032.11 6.29148 1098.07 40.6707C1173.4 79.9132 1220.15 131.03 1229.72 184.591C1239.08 236.844 1213.71 289.709 1154.35 341.743C1084.95 402.602 969.821 461.107 812.22 515.622C579.082 596.274 462.437 672.481 465.505 742.137C467.395 785.19 515.268 826.194 607.738 863.992C684.895 895.521 776.797 918.496 837.593 933.711C872.899 942.544 903.378 950.146 903.96 953.229C902.884 955.466 881.476 956.02 840.339 954.857C799.861 953.703 778.037 959.103 773.597 971.354C764.594 996.199 828.321 1046.29 909 1109.71C1040.58 1213.14 1220.77 1354.8 1193.19 1474.42C1184.74 1511.07 1156.87 1544.02 1110.35 1572.31C1058.83 1603.66 982.774 1630.34 884.322 1651.63L884.673 1653.2Z" fill="#F42EAC"/>
<path d="M894.407 1669.55C990.205 1648.22 1064.41 1621.42 1114.95 1589.86C1160.89 1561.18 1188.68 1527.7 1197.58 1490.34C1226.94 1366.93 1048.32 1220.67 917.902 1113.88C838.823 1049.12 776.362 997.98 785.416 973.883C789.731 962.362 810.589 957.368 849.163 958.615C907.598 960.509 912.781 958.331 913.153 955.705C913.731 951.739 897.417 947.119 846.832 933.832C730.04 903.184 487.048 839.38 482.69 738.86C479.63 668.613 593.485 591.724 821.052 510.329C976.539 454.713 1089.83 394.862 1157.77 332.409C1216.12 278.784 1240.52 224.158 1230.3 170.019C1207.24 47.8078 1011.47 -35.3658 890.754 -31.7981C830.429 -30.0135 794.491 -7.96442 789.591 30.3033L791.182 30.5091C795.974 -6.88515 831.351 -28.4512 890.792 -30.1879C1010.95 -33.7275 1205.8 48.9091 1228.71 170.315C1238.81 223.862 1214.57 278.002 1156.67 331.217C1088.89 393.524 975.784 453.257 820.502 508.809C592.203 590.466 477.996 667.89 481.086 738.946C482.997 782.895 530.007 824.844 620.783 863.676C696.555 896.077 786.731 919.733 846.422 935.419C881.165 944.551 911.163 952.414 911.555 955.519C910.593 957.82 889.605 958.343 849.206 957.034C809.864 955.763 788.497 961.098 783.901 973.339C774.435 998.52 837.302 1049.99 916.875 1115.16C1046.98 1221.69 1225.13 1367.58 1196.02 1490.01C1187.24 1526.95 1159.68 1560.1 1114.1 1588.55C1063.7 1620.01 989.682 1646.75 894.061 1668.04L894.407 1669.55Z" fill="#8A5E44"/>
<path d="M904.003 1686.29C997.01 1664.98 1069.23 1638.11 1118.65 1606.44C1163.63 1577.62 1191.1 1543.96 1200.33 1506.35C1231.27 1380.09 1054.64 1229.45 925.639 1119.46C847.605 1052.93 785.971 1000.38 795.495 975.924C799.965 964.414 820.339 959.497 857.804 960.848C915.054 962.932 920.155 960.725 920.582 958.073C921.203 954.054 905.191 949.291 855.504 935.597C740.872 904.013 502.331 838.293 497.94 735.64C494.884 663.981 606.31 585.856 829.139 503.423C982.41 446.739 1093.76 385.554 1160.07 321.604C1216.97 266.75 1240.23 210.802 1229.2 155.327C1204.33 30.1142 1011.58 -53.8668 893.801 -49.3839C836.067 -47.1943 801.718 -24.8037 797.071 13.6463L798.67 13.8319C803.208 -23.7446 837.01 -45.6247 893.859 -47.7665C1011.11 -52.214 1202.9 31.2227 1227.63 155.651C1238.54 210.56 1215.43 266.016 1158.96 320.451C1092.79 384.248 981.621 445.315 828.582 501.923C605.02 584.618 493.243 663.278 496.335 735.726C498.247 780.565 544.419 823.513 633.569 863.381C707.937 896.647 796.48 921.04 855.074 937.176C887.891 946.21 918.899 954.755 918.991 957.867C918.211 960.233 897.653 960.705 857.867 959.274C819.642 957.879 798.751 963.157 794.007 975.367C784.079 1000.88 846.099 1053.76 924.62 1120.72C1053.28 1230.43 1229.5 1380.71 1198.78 1506.01C1189.67 1543.2 1162.42 1576.55 1117.8 1605.13C1068.53 1636.7 996.473 1663.49 903.657 1684.77L904.003 1686.29Z" fill="#C864AE"/>
<path d="M913.461 1703.41C1003.7 1682.12 1073.97 1655.21 1122.31 1623.45C1166.33 1594.51 1193.5 1560.67 1203.03 1522.84C1235.64 1393.65 1060.86 1238.48 933.257 1125.18C856.249 1056.81 795.416 1002.78 805.395 978.015C810.014 966.535 829.931 961.683 866.287 963.138C922.378 965.4 927.412 963.191 927.854 960.499C928.541 956.23 909.939 950.675 863.977 937.405C751.438 904.884 517.273 837.199 512.864 732.372C509.779 659.266 618.857 579.866 837.026 496.376C988.156 438.537 1097.63 375.972 1162.35 310.424C1217.79 254.274 1239.9 196.956 1228.01 140.076C1216.06 82.8551 1169.28 28.5599 1096.33 -12.8425C1032.22 -49.2033 955.83 -70.1021 897.012 -67.3667C841.646 -64.784 808.736 -42.0824 804.349 -3.40238L805.947 -3.21682C810.246 -41.0161 842.616 -63.2274 897.098 -65.7623C955.657 -68.4763 1031.69 -47.6603 1095.56 -11.4544C1168.12 29.6948 1214.62 83.6373 1226.46 140.387C1238.24 196.701 1216.28 253.527 1161.23 309.272C1096.66 374.666 987.395 437.1 836.476 494.857C617.588 578.635 508.166 658.551 511.274 732.418C515.725 838.4 750.652 906.313 863.542 938.936C896.045 948.337 926.753 957.208 926.264 960.225C925.982 961.903 915.38 963.483 866.365 961.524C829.249 960.025 808.822 965.218 803.901 977.411C793.49 1003.26 854.689 1057.59 932.184 1126.4C1059.48 1239.42 1233.82 1394.21 1201.46 1522.45C1192.03 1559.87 1165.09 1593.4 1121.4 1622.11C1073.21 1653.77 1003.13 1680.61 913.061 1701.85L913.461 1703.41Z" fill="#E60CAA"/>
<path d="M922.769 1720.89C1010.3 1699.6 1078.63 1672.68 1125.89 1640.83C1168.96 1611.78 1195.82 1577.79 1205.67 1539.77C1239.96 1407.61 1067.02 1247.76 940.757 1131.04C864.722 1060.78 804.696 1005.27 815.158 980.172C819.919 968.743 839.38 963.955 874.667 965.528C929.62 967.974 934.573 965.737 935.042 963.032C935.771 958.709 917.499 952.999 872.348 939.313C761.868 905.82 531.971 836.153 527.537 729.106C524.452 654.54 631.19 573.844 844.806 489.246C993.901 430.152 1101.52 366.126 1164.65 298.913C1218.67 241.407 1239.56 182.648 1226.77 124.329C1214.02 66.1593 1167.43 11.0398 1095.58 -30.9012C1032.33 -67.8196 957.537 -88.7841 900.353 -85.6451C847.173 -82.7345 815.592 -59.67 811.423 -20.7067L813.029 -20.5413C817.082 -58.6109 848.136 -81.1576 900.439 -84.0406C957.296 -87.1599 1031.77 -66.2637 1094.76 -29.5074C1166.21 12.2006 1212.53 66.9472 1225.21 124.68C1237.9 182.461 1217.12 240.713 1163.5 297.813C1100.53 364.881 993.097 428.769 844.216 487.712C629.907 572.586 522.818 653.817 525.934 729.124C530.417 837.307 761.048 907.214 871.879 940.809C903.806 950.482 933.978 959.64 933.447 962.71C933.15 964.428 922.732 966.005 874.732 963.886C838.705 962.276 818.734 967.405 813.679 979.527C802.772 1005.67 863.184 1061.51 939.678 1132.21C1065.66 1248.64 1238.19 1408.11 1204.14 1539.33C1194.39 1576.95 1167.75 1610.64 1125.01 1639.46C1077.91 1671.19 1009.75 1698.06 922.404 1719.3L922.769 1720.89Z" fill="#985632"/>
<path d="M931.925 1738.72C1016.77 1717.48 1083.2 1690.52 1129.39 1658.6C1171.54 1629.47 1198.06 1595.33 1208.25 1557.14C1244.25 1421.92 1073.08 1257.26 948.105 1137.01C873.044 1064.79 813.745 1007.76 824.717 982.324C829.62 970.945 848.644 966.229 882.843 967.913C936.61 970.55 941.586 968.184 942.053 965.547C942.845 961.178 924.889 955.285 880.549 941.183C772.08 906.724 546.358 835.019 541.894 725.703C538.802 649.63 643.254 567.612 852.394 481.888C999.562 421.555 1105.39 355.994 1166.95 286.987C1219.52 228.029 1239.21 167.81 1225.44 107.954C1211.87 48.8972 1165.46 -6.99892 1094.81 -49.4221C1032.5 -86.8215 959.327 -107.892 903.812 -104.382C852.635 -101.141 822.282 -77.7503 818.344 -38.4762L819.95 -38.3108C823.8 -76.7042 853.612 -99.6049 903.898 -102.778C959.087 -106.268 1031.91 -85.3003 1093.95 -48.0629C1164.23 -5.86559 1210.36 49.6576 1223.84 108.291C1237.48 167.601 1217.92 227.341 1165.7 285.879C1104.32 354.7 998.684 420.123 851.757 480.359C641.945 566.367 537.141 648.92 540.271 725.714C544.764 836.158 771.22 908.103 880.04 942.665C911.402 952.637 941.033 962.034 940.445 965.198C940.141 966.936 929.899 968.531 882.894 966.244C847.929 964.536 828.401 969.573 823.212 981.624C811.81 1008.07 871.44 1065.45 946.959 1138.1C1071.65 1258.07 1242.43 1422.36 1206.66 1556.66C1196.59 1594.46 1170.27 1628.29 1128.45 1657.21C1082.42 1689.01 1016.17 1715.9 931.507 1737.09L931.925 1738.72Z" fill="#8838BC"/>
<path d="M940.978 1756.98C1023.19 1735.75 1087.74 1708.77 1132.86 1676.83C1174.1 1647.63 1200.3 1613.38 1210.76 1575.05C1248.54 1436.73 1079.05 1267.06 955.305 1143.2C881.165 1068.98 822.616 1010.37 834.104 984.641C839.14 973.334 857.721 968.709 890.865 970.472C938.394 973.015 948.308 971.508 948.932 968.242C949.773 963.8 932.134 957.724 888.549 943.231C782.038 907.764 560.403 834.013 555.931 722.368C552.832 644.787 655.061 561.401 859.779 474.525C1005.12 412.853 1109.21 345.644 1169.19 274.767C1220.34 214.317 1238.76 152.528 1223.96 91.0943C1209.52 31.2029 1163.38 -25.373 1094 -68.2089C1032.7 -106.047 961.176 -127.162 907.324 -123.329C858.008 -119.808 828.794 -96.0318 825.065 -56.3862L826.678 -56.2411C830.319 -95.0059 858.998 -118.245 907.43 -121.718C960.963 -125.551 1032.12 -104.519 1093.14 -66.8498C1162.17 -24.2324 1208.06 31.9778 1222.39 91.4662C1237.07 152.334 1218.75 213.656 1167.97 273.714C1108.17 344.405 1004.28 411.456 859.175 473.031C653.784 560.191 551.232 644.099 554.361 722.421C558.869 835.174 781.212 909.178 888.073 944.748C918.879 955 947.994 964.69 947.377 967.935C947.039 969.707 936.973 971.319 890.99 968.852C857.087 967.045 838.003 971.991 832.659 983.963C820.721 1010.7 879.622 1069.66 954.193 1144.32C1077.67 1267.93 1246.77 1437.22 1209.23 1574.62C1198.85 1612.58 1172.86 1646.52 1131.95 1675.5C1087 1707.34 1022.62 1734.22 940.586 1755.4L940.978 1756.98Z" fill="#F22C1C"/>
<path d="M949.879 1775.59C1029.51 1754.39 1092.21 1727.41 1136.27 1695.43C1176.59 1666.18 1202.48 1631.83 1213.24 1593.39C1252.82 1451.88 1084.95 1277.07 962.395 1149.43C889.171 1073.18 831.324 1012.93 843.32 986.921C848.484 975.704 866.621 971.172 898.752 973.027C945.285 975.737 955.043 974.22 955.695 970.942C956.605 966.433 939.255 960.187 896.44 945.263C791.84 908.794 574.225 832.927 569.751 718.932C566.641 639.796 666.673 555.03 867.053 466.962C1010.68 403.853 1113.08 334.921 1171.44 262.052C1221.13 200.007 1238.28 136.574 1222.4 73.5194C1207.11 12.8687 1161.22 -44.3264 1093.17 -87.5258C1032.94 -125.754 963.083 -146.913 910.887 -142.737C863.296 -138.939 835.16 -114.799 831.653 -74.7544L833.245 -74.6165C836.685 -113.773 864.293 -137.396 911.02 -141.138C962.89 -145.294 1032.35 -124.233 1092.32 -86.1666C1160.01 -43.1858 1205.67 13.6508 1220.85 73.8985C1236.61 136.454 1219.57 199.402 1170.21 261.04C1112.02 333.695 1009.8 402.488 866.421 465.481C665.37 553.833 565.013 639.121 568.161 718.978C572.691 834.088 791.034 910.215 895.924 946.766C926.187 957.324 954.793 967.288 954.127 970.607C953.774 972.419 943.891 974.028 898.857 971.399C865.994 969.487 847.354 974.341 841.883 986.223C829.436 1013.23 887.615 1073.83 961.27 1150.54C1083.56 1277.89 1251.06 1452.33 1211.73 1592.94C1201.08 1631.03 1175.39 1665.08 1135.37 1694.13C1091.46 1726 1028.93 1752.88 949.507 1774.02L949.879 1775.59Z" fill="#EC405C"/>
<path d="M958.656 1794.61C1035.72 1773.44 1096.61 1746.48 1139.65 1714.5C1179.05 1685.19 1204.65 1650.79 1215.66 1612.25C1257.06 1467.52 1090.79 1287.37 969.373 1155.86C897.025 1077.48 839.868 1015.56 852.38 989.258C857.671 978.133 875.365 973.692 906.474 975.66C952.04 978.525 961.628 977.038 962.321 973.706C963.28 969.124 946.239 962.715 904.168 947.374C801.458 909.894 587.734 831.889 583.228 715.442C580.112 634.73 677.984 548.551 874.127 459.259C1016.13 394.633 1116.91 323.865 1173.68 248.896C1221.94 185.176 1237.76 120.035 1220.69 55.2559C1204.53 -6.07323 1158.92 -63.8051 1092.27 -107.278C1033.17 -145.834 965.046 -167.008 914.479 -162.544C868.485 -158.493 841.353 -133.97 838.032 -93.4934L839.625 -93.3554C842.858 -132.951 869.49 -156.97 914.613 -160.945C964.846 -165.369 1032.57 -144.293 1091.4 -105.926C1157.71 -62.6645 1203.08 -5.27087 1219.15 55.6827C1236.07 119.956 1220.36 184.63 1172.42 247.944C1115.8 322.693 1015.24 393.289 873.48 457.819C676.686 547.401 578.49 634.103 581.651 715.515C586.201 833.049 800.611 911.301 903.644 948.896C934.685 960.213 961.481 970.007 960.766 973.399C960.217 976.076 941.98 976.308 906.592 974.06C874.743 972.055 856.553 976.797 850.956 988.587C837.98 1015.86 895.441 1078.14 968.2 1156.97C1089.35 1288.2 1255.29 1467.96 1214.1 1611.83C1191.24 1691.73 1105.16 1752.72 958.222 1793.09L958.656 1794.61Z" fill="#D672D2"/>
<path d="M967.328 1814.05C1041.9 1792.9 1101 1765.98 1142.98 1734.01C1181.51 1704.68 1206.75 1670.22 1218.04 1631.62C1261.31 1483.6 1096.54 1297.97 976.252 1162.43C904.747 1081.89 848.274 1018.25 861.316 991.688C866.718 980.694 883.976 976.325 914.092 978.392C958.703 981.44 968.127 979.962 968.863 976.577C969.884 971.949 953.14 965.35 911.778 949.556C810.905 911.025 600.992 830.852 596.488 711.919C593.374 629.612 689.119 541.985 881.08 451.445C1021.56 385.202 1120.77 312.477 1175.93 235.312C1222.72 169.834 1237.18 102.883 1218.86 36.3304C1201.83 -25.6093 1156.53 -83.7754 1091.33 -127.46C1033.4 -166.255 967.016 -187.443 918.066 -182.719C873.581 -178.423 847.356 -153.505 844.229 -112.549L845.829 -112.432C848.896 -152.52 874.585 -176.899 918.22 -181.113C966.816 -185.804 1032.81 -164.733 1090.43 -126.116C1155.31 -82.6622 1200.38 -24.8069 1217.31 36.7774C1235.48 102.844 1221.12 169.329 1174.62 234.386C1119.62 311.338 1020.62 383.884 880.406 450.017C687.793 540.848 591.752 628.984 594.883 712.005C599.438 832.005 810.01 912.437 911.207 951.084C941.716 962.735 968.052 972.797 967.288 976.263C966.696 978.993 948.82 979.172 914.202 976.813C883.368 974.716 865.601 979.358 859.871 991.01C846.346 1018.54 903.151 1082.52 975.039 1163.52C1095.09 1298.77 1259.51 1484.02 1216.51 1631.19C1193.13 1711.2 1109.14 1772.21 966.914 1812.53L967.328 1814.05Z" fill="#926804"/>
<path d="M975.876 1833.9C1047.98 1812.81 1105.32 1785.91 1146.29 1753.97C1183.93 1724.62 1208.85 1690.13 1220.38 1651.5C1265.51 1500.11 1102.2 1308.82 982.985 1169.16C912.325 1086.39 856.503 1021 870.086 994.195C875.581 983.326 892.429 979.083 921.545 981.202C965.209 984.412 974.47 982.944 975.26 979.533C976.351 974.838 959.882 968.042 919.23 951.796C820.153 912.199 613.978 829.808 609.47 708.343C606.353 624.392 700.026 535.292 887.881 443.484C1026.95 375.526 1124.61 300.742 1178.14 221.191C1223.46 153.839 1236.5 85.0088 1216.86 16.5933C1198.94 -45.8689 1153.99 -104.367 1090.29 -148.174C1033.61 -187.137 968.995 -208.285 921.65 -203.327C878.565 -198.803 853.22 -173.479 850.278 -132.023L851.878 -131.905C854.74 -172.5 879.577 -197.3 921.804 -201.721C968.775 -206.654 1032.98 -185.61 1089.36 -146.844C1152.73 -103.268 1197.47 -45.0738 1215.29 17.0331C1234.8 84.9704 1221.84 153.347 1176.78 220.291C1123.4 299.601 1025.94 374.206 887.146 442.035C698.66 534.141 604.683 623.77 607.833 708.394C612.391 830.926 819.206 913.569 918.606 953.282C948.585 965.267 974.48 975.604 973.659 979.164C973.033 981.927 955.511 982.073 921.622 979.588C891.781 977.391 874.438 981.935 868.595 993.455C854.536 1021.21 910.662 1086.95 981.705 1170.18C1100.71 1309.56 1263.67 1500.48 1218.79 1651.03C1194.91 1731.09 1113.02 1792.1 975.381 1832.36L975.876 1833.9Z" fill="#B07282"/>
<path d="M984.292 1854.18C1053.99 1833.14 1109.6 1806.28 1149.55 1774.39C1186.3 1745.04 1210.89 1710.57 1222.64 1671.9C1269.68 1517.09 1107.78 1319.97 989.592 1176.04C919.731 1090.98 864.554 1023.8 878.659 996.745C884.266 986.008 900.671 981.857 928.834 984.09C971.59 987.476 980.688 986.018 981.513 982.574C982.673 977.813 965.485 970.416 926.511 954.133C829.19 913.456 626.692 828.826 622.161 704.753C619.041 619.159 710.664 528.526 894.514 435.418C1032.27 365.597 1128.44 288.613 1180.33 206.56C1224.17 137.239 1235.73 66.4201 1214.66 -3.92228C1195.85 -66.7987 1151.28 -125.546 1089.15 -169.338C1033.74 -208.414 970.935 -229.461 925.201 -224.29C883.415 -219.573 858.896 -193.816 856.145 -151.813L857.753 -151.715C860.443 -192.851 884.467 -218.056 925.382 -222.697C1011.91 -232.485 1170.84 -144.734 1213.11 -3.47533C1234.02 66.4221 1222.53 136.788 1178.95 205.7C1127.21 287.513 1031.27 364.304 893.76 433.962C709.318 527.382 617.378 618.517 620.531 704.784C625.106 829.877 828.257 914.786 925.873 955.592C955.343 967.919 980.81 978.559 979.927 982.165C979.238 984.974 962.097 985.075 928.938 982.463C900.064 980.18 883.151 984.604 877.203 995.972C862.601 1023.96 918.083 1091.51 988.3 1177.04C1106.27 1320.68 1267.83 1517.43 1221.05 1671.43C1196.74 1751.47 1116.9 1812.44 983.769 1852.65L984.292 1854.18Z" fill="#867872"/>
<path d="M992.602 1874.89C1059.94 1853.88 1113.83 1827.1 1152.78 1795.25C1188.66 1765.93 1212.93 1731.46 1224.87 1692.82C1273.82 1534.54 1113.31 1331.4 996.108 1183.06C927.027 1095.63 872.476 1026.57 887.129 999.327C892.821 988.734 908.815 984.71 936.019 987.01C977.856 990.545 986.804 989.124 987.691 985.634C988.921 980.807 972.028 973.22 933.703 956.462C838.098 914.69 639.162 827.757 634.604 701.029C631.474 613.743 721.088 521.591 900.976 427.131C1037.56 355.429 1132.29 276.104 1182.5 191.351C1224.22 120.95 1234.52 46.0285 1212.26 -25.3321C1192.57 -88.5 1148.41 -147.353 1087.91 -191.061C1033.01 -230.73 973.51 -251.138 928.727 -245.695C888.186 -240.76 864.439 -214.611 861.865 -172.02L863.472 -171.922C865.986 -213.646 889.225 -239.269 928.909 -244.102C1021.48 -255.368 1169.71 -156.384 1210.72 -24.8375C1232.83 46.0854 1222.59 120.547 1181.1 190.552C1131.03 275.037 1036.53 354.15 900.22 425.742C719.74 520.515 629.837 613.156 632.992 701.135C637.575 828.876 837.143 916.08 933.044 957.982C962.03 970.637 987.049 981.572 986.11 985.272C985.38 988.135 968.58 988.175 936.13 985.43C908.221 983.06 891.719 987.358 885.686 998.582C870.537 1026.76 925.392 1096.18 994.829 1184.08C1111.81 1332.14 1272.01 1534.9 1223.33 1692.36C1198.61 1772.33 1120.82 1833.23 992.121 1873.37L992.602 1874.89Z" fill="#C06498"/>
<path d="M1000.81 1896.01C1065.84 1875.06 1118.06 1848.32 1156.01 1816.57C1191.04 1787.28 1214.93 1752.84 1227.06 1714.25C1277.92 1552.43 1118.72 1343.07 1002.5 1190.23C934.193 1100.39 880.227 1029.44 895.435 1001.99C901.205 991.559 916.789 987.661 943.074 990.042C984.024 993.76 992.816 992.329 993.75 988.833C995.05 983.94 978.441 976.135 940.757 958.924C846.835 916.021 651.381 826.757 646.823 697.292C643.691 608.296 731.337 514.571 907.339 418.74C1042.82 344.955 1136.12 263.133 1184.64 175.537C1224.86 102.957 1233.5 25.7772 1209.67 -47.6563C1189.1 -111 1145.39 -169.85 1086.56 -213.35C1033.07 -252.899 975.368 -273.165 932.197 -267.576C892.82 -262.451 869.803 -235.859 867.399 -192.659L869.006 -192.562C871.37 -234.887 893.879 -260.954 932.399 -265.976C975.167 -271.526 1032.42 -251.38 1085.59 -212.055C1144.13 -168.751 1187.65 -110.198 1208.12 -47.1617C1239.05 48.1343 1240.99 235.183 906.529 417.309C729.957 513.46 642.021 607.674 645.185 697.343C649.775 827.8 845.833 917.35 940.052 960.382C968.548 973.385 993.18 984.638 992.164 988.424C991.399 991.32 974.905 991.333 943.192 988.442C916.202 985.991 900.13 990.17 894.006 1001.2C878.31 1029.58 932.531 1100.89 1001.19 1191.2C1117.24 1343.77 1276.15 1552.73 1225.55 1713.77C1200.47 1793.61 1124.68 1854.41 1000.33 1894.49L1000.81 1896.01Z" fill="#BC5496"/>
<path d="M1008.91 1917.61C1129.52 1877.45 1203.66 1816.42 1229.23 1736.24C1281.99 1570.84 1124.08 1355.1 1008.8 1197.58C941.245 1105.27 887.875 1032.34 903.602 1004.71C909.443 994.468 924.604 990.67 949.991 993.139C989.925 997.017 998.739 995.526 999.679 992.078C1001.05 987.118 984.722 979.095 947.66 961.423C855.379 917.376 663.334 825.731 658.771 693.482C655.652 602.734 741.366 507.404 913.515 410.168C1246.57 222.061 1240.23 27.9872 1206.83 -70.957C1185.41 -134.354 1142.19 -193.03 1085.1 -236.178C1033.07 -275.525 977.199 -295.565 935.661 -289.824C897.387 -284.532 875.073 -257.482 872.823 -213.634L874.438 -213.557C877.254 -268.65 909.4 -284.579 935.89 -288.237C977.019 -293.919 1032.44 -273.97 1084.14 -234.903C1140.98 -191.937 1184 -133.537 1205.32 -70.4479C1238.58 28.0109 1244.79 221.22 912.746 408.751C740.025 506.307 654.023 602.126 657.181 693.527C661.783 826.749 854.406 918.692 946.982 962.868C975.002 976.248 999.233 987.79 998.147 991.642C997.32 994.584 981.187 994.545 950.156 991.533C924.084 989.001 908.402 993.046 902.229 1003.9C885.979 1032.42 939.626 1105.71 1007.53 1198.51C1122.61 1355.76 1280.25 1571.12 1227.74 1735.75C1202.34 1815.42 1128.56 1876.08 1008.45 1916.08L1008.91 1917.61Z" fill="#F41EC2"/>
<path d="M1016.92 1939.67C1133.38 1899.59 1205.52 1838.73 1231.36 1758.78C1286.02 1589.73 1129.38 1367.42 1014.98 1205.08C948.135 1110.22 895.353 1035.28 911.614 1007.49C917.505 997.428 932.275 993.763 956.751 996.293C995.806 1000.34 1004.48 998.861 1005.49 995.394C1006.94 990.395 990.88 982.148 954.434 963.967C863.735 918.754 675.017 824.699 670.451 689.597C667.331 597.07 751.119 500.115 919.539 401.45C1053.23 323.123 1143.83 235.794 1188.81 141.911C1225.89 64.5539 1231.02 -17.4652 1203.68 -95.3036C1156.28 -230.214 1020.12 -324.484 938.988 -312.578C901.749 -307.119 880.082 -279.587 878.008 -235.082L879.623 -235.005C882.221 -290.953 913.478 -307.2 939.21 -310.97C1019.76 -322.788 1154.99 -228.966 1202.15 -94.7338C1237.92 7.08866 1248.66 206.756 918.708 400.079C749.757 499.079 665.68 596.524 668.826 689.676C673.431 825.749 862.727 920.102 953.702 965.437C982.393 979.742 1005.07 991.045 1003.93 994.972C1002.62 999.451 968.209 995.887 956.909 994.708C931.729 992.107 916.457 996.026 910.213 1006.69C893.409 1035.36 946.467 1110.67 1013.64 1206.02C1127.82 1368.07 1284.21 1590.02 1229.81 1758.29C1204.12 1837.73 1132.31 1898.24 1016.37 1938.15L1016.92 1939.67Z" fill="#A07CD8"/>
<path d="M1024.81 1962.18C1137.2 1922.19 1207.4 1861.52 1233.46 1781.86C1290.01 1609.13 1134.57 1380.03 1021.06 1212.74C954.926 1115.26 902.693 1038.28 919.5 1010.37C925.434 1000.5 939.814 996.969 963.419 999.575C1001.63 1003.79 1010.17 1002.32 1011.21 998.837C1012.76 993.759 996.961 985.287 961.076 966.623C871.965 920.223 686.508 823.689 681.941 685.668C678.808 591.334 760.752 492.714 925.457 392.58C1058.4 311.751 1147.71 221.405 1190.84 124.051C1226.28 44.0764 1229.54 -40.5518 1200.29 -120.695C1177.27 -183.707 1135.17 -241.57 1081.72 -283.664C1032.74 -322.215 980.627 -341.682 942.324 -335.738C906.052 -330.116 885.04 -302.12 883.12 -256.899L884.734 -256.822C886.643 -301.819 906.635 -328.561 942.573 -334.144C980.44 -340.015 1032.09 -320.668 1080.73 -282.376C1133.96 -240.477 1175.88 -182.862 1198.78 -120.118C1237.24 -14.7781 1252.78 191.72 924.639 391.237C759.376 491.719 677.197 590.802 680.336 685.754C684.95 824.727 870.964 921.552 960.343 968.093C988.59 982.809 1010.91 994.416 1009.69 998.429C1008.32 1002.95 974.664 999.252 963.603 998.044C939.314 995.375 924.439 999.14 918.132 1009.6C900.783 1038.39 953.285 1115.76 1019.74 1213.7C1133.05 1380.71 1288.24 1609.43 1231.94 1781.41C1206.03 1860.58 1136.15 1920.9 1024.26 1960.71L1024.81 1962.18Z" fill="#E21C5A"/>
<path d="M1032.62 1985.16C1141.03 1945.27 1209.31 1884.81 1235.57 1805.49C1293.98 1629.03 1139.72 1392.96 1027.09 1220.6C961.639 1120.45 909.944 1041.33 927.289 1013.32C933.259 1003.67 947.229 1000.27 969.99 1002.94C1007.35 1007.31 1015.76 1005.87 1016.86 1002.37C1018.49 997.23 1002.94 988.525 967.648 969.345C880.065 921.738 697.796 822.675 693.201 681.679C690.069 585.498 770.15 485.206 931.257 383.531C1063.58 300.039 1151.59 206.445 1192.81 105.395C1226.57 22.653 1227.87 -64.7086 1196.54 -147.261C1145.61 -281.525 1019.8 -371.554 945.541 -359.397C910.216 -353.618 889.805 -325.133 888.038 -279.196L889.639 -279.146C891.389 -324.907 910.814 -352.103 945.798 -357.823C1019.45 -369.878 1144.36 -280.283 1195.02 -146.712C1236.39 -37.6601 1257.01 176.042 930.358 382.159C768.748 484.156 688.404 584.924 691.55 681.703C696.172 823.643 878.978 922.99 966.829 970.739C994.619 985.838 1016.57 997.77 1015.29 1001.85C1013.82 1006.43 980.931 1002.57 970.136 1001.32C946.697 998.571 932.225 1002.23 925.889 1012.45C908.001 1041.34 959.953 1120.83 1025.71 1221.45C1138.16 1393.54 1292.18 1629.23 1234.01 1804.95C1207.92 1883.79 1139.96 1943.91 1032.03 1983.63L1032.62 1985.16Z" fill="#DC72DC"/>
<path d="M1040.32 2008.66C1144.84 1968.85 1211.23 1908.65 1237.63 1829.7C1297.88 1649.45 1144.77 1406.22 1032.97 1228.62C968.208 1125.72 917.037 1044.45 934.914 1016.35C940.92 1006.92 954.5 1003.65 976.418 1006.38C1012.96 1010.94 1021.22 1009.52 1022.38 1005.97C1024.11 1000.77 1008.82 991.843 974.063 972.125C887.968 923.295 708.813 821.655 704.199 677.596C701.068 579.568 779.355 477.538 936.884 374.328C1068.7 287.987 1155.44 190.949 1194.67 85.9018C1226.69 0.186547 1225.92 -90.04 1192.43 -175.032C1168.04 -236.941 1127.31 -293.286 1077.72 -333.698C1032.01 -370.939 983.775 -389.563 948.702 -383.533C914.257 -377.598 894.418 -348.611 892.83 -301.903L894.432 -301.853C896.022 -348.378 914.874 -376.076 948.979 -381.952C983.615 -387.91 1031.35 -369.419 1076.71 -332.464C1126.09 -292.22 1166.65 -236.117 1190.95 -174.468C1226.76 -83.5565 1273.62 151.803 936.005 372.964C777.973 476.495 699.431 578.981 702.588 677.634C707.216 822.61 886.908 924.534 973.244 973.519C1000.61 989.036 1022.21 1001.3 1020.83 1005.46C1019.31 1010.09 987.153 1006.08 976.583 1004.78C953.988 1001.96 939.893 1005.46 933.535 1015.49C915.122 1044.44 966.523 1126.1 1031.6 1229.47C1143.21 1406.8 1296.1 1649.65 1236.09 1829.17C1209.85 1907.65 1143.79 1967.52 1039.74 2007.15L1040.32 2008.66Z" fill="#EC8216"/>
<path d="M1047.92 2032.61C1148.68 1992.93 1213.17 1932.97 1239.66 1854.42C1301.72 1670.35 1149.74 1419.77 1038.75 1236.8C974.633 1131.08 923.98 1047.6 942.381 1019.44C948.402 1010.22 961.585 1007.1 982.708 1009.89C1018.42 1014.6 1026.56 1013.21 1027.79 1009.66C1029.6 1004.41 1014.56 995.226 980.334 974.99C895.7 924.882 719.598 820.643 714.967 673.453C711.831 573.531 788.339 469.722 942.393 364.946C1073.82 275.568 1159.31 174.821 1196.48 65.5447C1234.66 -46.6965 1212.93 -143.027 1187.99 -204.039C1163.02 -265.105 1123.09 -320.366 1075.51 -359.714C1030.86 -396.646 985.774 -414.275 951.779 -408.133C918.199 -402.069 898.898 -372.547 897.463 -325.055L899.064 -325.005C900.509 -372.334 918.837 -400.54 952.076 -406.544C1018.63 -418.57 1133.02 -334.251 1186.51 -203.427C1225.02 -109.222 1278.24 134.6 941.52 363.63C786.983 468.734 710.248 572.986 713.397 673.506C718.049 821.592 894.681 926.136 979.562 976.378C1006.51 992.314 1027.76 1004.91 1026.3 1009.15C1024.7 1013.82 993.278 1009.67 982.954 1008.31C961.161 1005.42 947.477 1008.79 941.07 1018.58C922.133 1047.6 973.015 1131.46 1037.42 1237.65C1148.23 1420.34 1300 1670.55 1238.18 1853.91C1211.87 1931.98 1147.67 1991.61 1047.36 2031.11L1047.92 2032.61Z" fill="#9C42A8"/>
<path d="M1055.46 2057.1C1152.54 2017.53 1215.2 1957.85 1241.72 1879.77C1305.54 1691.81 1154.66 1433.69 1044.47 1245.22C980.992 1136.63 930.846 1050.84 949.737 1022.65C955.767 1013.66 968.559 1010.68 988.886 1013.52C1023.81 1018.41 1031.8 1017.03 1033.11 1013.46C1035.01 1008.15 1020.21 998.735 986.527 977.941C903.328 926.569 730.193 819.654 725.553 669.245C722.407 567.381 797.183 461.788 947.776 355.406C1078.91 262.775 1163.14 158.109 1198.15 44.2747C1233.95 -72.1965 1209.73 -171.517 1183.09 -234.326C1127.09 -366.416 1017.78 -445.146 954.757 -433.224C921.969 -427.013 903.213 -396.976 901.915 -348.659L903.517 -348.609C904.811 -396.791 922.614 -425.504 955.034 -431.642C1017.47 -443.455 1125.88 -365.092 1181.59 -233.701C1223 -136.083 1282.99 116.625 946.842 354.067C795.766 460.778 720.776 566.842 723.922 669.276C728.598 820.541 902.215 927.766 985.675 979.3C1012.19 995.675 1033.13 1008.62 1031.59 1012.92C1029.9 1017.63 999.191 1013.34 989.119 1011.92C968.123 1008.97 954.808 1012.2 948.42 1021.74C928.973 1050.78 979.328 1136.94 1043.08 1246.02C1153.1 1434.23 1303.78 1692 1240.2 1879.24C1213.84 1956.86 1151.48 2016.21 1054.86 2055.61L1055.46 2057.1Z" fill="#CE7E1C"/>
<path d="M1062.9 2082.09C1156.4 2042.63 1217.24 1983.26 1243.75 1905.65C1309.28 1713.79 1159.46 1447.91 1050.09 1253.76C987.249 1142.2 937.59 1054.1 956.99 1025.89C963.008 1017.12 975.431 1014.28 994.982 1017.19C1029.09 1022.24 1036.98 1020.9 1038.34 1017.32C1040.35 1011.96 1025.78 1002.28 992.599 980.917C910.788 928.219 740.546 818.577 735.891 664.903C732.742 561.076 805.78 453.651 953.016 345.631C1083.97 249.56 1166.95 140.663 1199.69 21.9965C1233.05 -98.9776 1206.19 -201.386 1177.78 -265.994C1151.99 -324.641 1113.9 -377.144 1070.53 -413.843C1029.51 -448.534 988.375 -464.954 957.661 -458.866C935.022 -454.374 907.718 -435.796 906.25 -372.761L907.859 -372.732C909.01 -421.786 926.315 -451.02 957.964 -457.297C988.208 -463.28 1028.85 -447.014 1069.47 -412.625C1112.66 -376.086 1150.6 -323.797 1176.3 -265.362C1220.8 -164.15 1288.02 97.8345 952.055 344.305C804.377 452.668 731.091 560.529 734.268 664.913C738.965 819.424 909.681 929.395 991.72 982.221C1017.84 999.048 1038.46 1012.33 1036.82 1016.71C1035.03 1021.45 1005.06 1017.02 995.223 1015.57C974.994 1012.58 962.057 1015.64 955.66 1024.96C935.691 1053.99 983.091 1138.09 1048.7 1254.51C1157.94 1448.39 1307.56 1713.9 1242.24 1905.09C1215.89 1982.25 1155.35 2041.29 1062.29 2080.55L1062.9 2082.09Z" fill="#9466D6"/>
<path d="M1070.26 2107.59C1160.28 2068.24 1219.34 2009.19 1245.81 1932.09C1312.99 1736.27 1164.24 1462.44 1055.62 1262.51C993.379 1147.94 944.216 1057.43 964.085 1029.26C970.083 1020.73 982.136 1018.03 1000.95 1020.97C1034.28 1026.2 1042.05 1024.88 1043.46 1021.28C1045.59 1015.86 1031.23 1005.92 998.565 983.992C918.122 929.96 750.728 817.531 746.02 660.508C742.855 554.691 814.21 445.408 958.13 335.697C1088.98 235.984 1170.72 122.604 1201.06 -1.27669C1231.86 -127.021 1202.26 -232.581 1172 -298.969C1145.98 -356.061 1108.98 -406.848 1067.78 -441.97C1028.67 -475.313 989.549 -490.988 960.438 -484.986C938.321 -480.422 911.688 -461.489 910.405 -397.316L912.014 -397.286C913.009 -447.24 929.872 -477.021 960.763 -483.41C989.382 -489.315 1028.01 -473.773 1066.74 -440.744C1107.77 -405.755 1144.63 -355.174 1170.55 -298.303C1207.86 -216.456 1302.69 71.0532 957.167 334.44C812.812 444.473 741.23 554.199 744.423 660.574C749.152 818.426 917.009 931.157 997.673 985.337C1023.4 1002.62 1043.71 1016.26 1041.98 1020.71C1040.11 1025.48 1010.85 1020.9 1001.22 1019.38C981.767 1016.33 969.18 1019.25 962.802 1028.32C942.345 1057.31 989.285 1143.71 1054.23 1263.27C1162.71 1462.94 1311.27 1736.42 1244.3 1931.57C1217.99 2008.23 1159.23 2066.95 1069.65 2106.12L1070.26 2107.59Z" fill="#AA66C0"/>
</g>
</svg>
