<svg width="1440" height="1172" viewBox="0 0 1440 1172" fill="none" xmlns="http://www.w3.org/2000/svg">
<mask id="mask0_602_537" style="mask-type:luminance" maskUnits="userSpaceOnUse" x="-405" y="0" width="1876" height="1172">
<path d="M-404.8 0H1470.4V1172H-404.8V0Z" fill="white"/>
</mask>
<g mask="url(#mask0_602_537)">
<path d="M806.087 1310.69C829.621 1310.69 855.475 1308.4 883.416 1303.76C971.245 1289.15 1072.97 1252.26 1155.55 1205.07C1259.21 1145.84 1310.82 1083.47 1293.62 1038.2L1291.97 1038.84C1308.83 1083.21 1257.52 1144.79 1154.69 1203.55C1072.27 1250.64 970.777 1287.47 883.134 1302.05C782.905 1318.71 709.397 1305.05 676.183 1263.58C625.13 1199.82 640.343 1040.43 1002.77 643.1C1127.45 506.421 1214.41 395.972 1261.27 314.87C1302.83 242.909 1313.82 192.255 1293.9 164.268C1267.83 127.655 1188.25 129.272 1057.34 169.073C948.11 202.287 826.011 254.77 745.237 289.508C697.396 310.065 659.47 326.379 655.274 325.019C656.774 319.745 712.28 284.445 730.657 272.772C783.139 239.393 805.407 217.055 800.719 202.498C792.164 175.964 691.489 181.731 564.046 189.067C359.297 200.834 78.8612 216.937 30.5981 102.714C14.2371 63.9914 25.6523 11.9312 64.5627 -51.9897C107.974 -123.341 187.013 -211.827 299.455 -314.963L298.259 -316.252C185.677 -212.999 106.544 -124.396 63.0392 -52.9038C23.8241 11.5327 12.3618 64.1321 28.9574 103.394C50.616 154.634 118.639 184.567 236.964 194.904C338.506 203.764 458.378 196.896 564.139 190.802C690.833 183.535 790.898 177.769 799.032 203.014C803.368 216.492 780.702 238.807 729.696 271.248C657.079 317.425 652.274 323.285 653.633 325.84C655.532 329.449 674.003 321.996 745.893 291.078C904.019 223.149 1232.98 81.7355 1292.44 165.276C1334.26 224.016 1236.35 384.369 1001.46 641.905C638.21 1040.15 623.325 1200.36 674.8 1264.66C699.13 1295.04 744.604 1310.69 806.087 1310.69Z" fill="#00C6B8"/>
<path d="M820.62 1323.96C843.708 1323.96 868.906 1321.83 895.956 1317.52C985.169 1303.33 1086.62 1266.7 1167.37 1219.54C1212.44 1193.21 1247.98 1165.23 1270.13 1138.62C1294.69 1109.11 1302.5 1082.3 1293.33 1058.93L1291.69 1059.56C1308.71 1103.04 1261.9 1162.27 1166.48 1218.01C1085.91 1265.06 984.676 1301.6 895.675 1315.76C794.109 1331.91 719.031 1317.33 684.269 1274.67C631.412 1209.83 642.687 1049.81 996.561 655.687C1117.89 520.532 1202.27 411.091 1247.32 330.364C1287.29 258.755 1297.27 207.96 1276.97 179.41C1250.39 142.047 1171.31 142.14 1041.87 179.691C933.859 211.031 813.424 261.544 733.751 294.946C688.278 314.003 648.945 330.504 644.961 328.957C646.156 323.8 700.841 289.227 718.914 277.811C770.177 245.417 791.929 223.454 787.359 208.71C778.92 181.567 678.667 185.481 551.716 190.427C347.413 198.396 67.6099 209.296 18.9954 91.9554C2.68103 52.5762 13.4869 0.469086 51.1082 -62.983C93.0658 -133.725 169.714 -220.851 278.945 -321.925L277.749 -323.214C168.402 -222.023 91.6593 -134.78 49.6079 -63.8972C11.682 0.0471802 0.852783 52.6934 17.3779 92.6117C39.1771 145.235 107.2 177.043 225.338 189.911C326.739 200.951 446.307 196.287 551.786 192.161C677.987 187.239 777.654 183.348 785.694 209.202C789.937 222.868 767.786 244.808 718 276.288C646.695 321.363 642.007 327.176 643.367 329.778C645.382 333.669 668.354 324.269 734.454 296.563C890.377 231.236 1214.88 95.1667 1275.54 180.488C1318.18 240.448 1223.88 399.934 995.271 654.562C640.577 1049.6 629.631 1210.44 682.933 1275.82C708.788 1307.55 756.535 1323.96 820.62 1323.96Z" fill="#B2D7FF"/>
<path d="M835.598 1337.58C858.007 1337.58 882.314 1335.63 908.262 1331.72C998.577 1318.08 1099.51 1281.89 1178.31 1234.89C1269.36 1180.6 1311.34 1124.07 1293.5 1079.76L1291.86 1080.42C1309.34 1123.81 1267.62 1179.57 1177.4 1233.37C1029.75 1321.43 773.904 1384.11 692.638 1286.15C656.821 1242.98 659.025 1174.06 699.201 1081.29C745.964 973.276 844.037 834.323 990.654 668.321C1108.7 534.667 1190.5 426.139 1233.77 345.764C1272.17 274.459 1281.15 223.547 1260.45 194.435C1233.35 156.298 1154.71 154.868 1026.7 190.192C919.888 219.68 801.071 268.201 722.43 300.313C677.003 318.878 637.788 334.887 634.647 332.778C634.788 328.301 689.356 294.031 707.311 282.757C757.379 251.3 778.616 229.712 774.162 214.804C765.864 187.051 665.939 189.067 539.41 191.646C335.435 195.794 56.1244 201.443 7.1582 80.8915C-9.08569 40.8795 1.11072 -11.3214 37.4896 -74.2578C78.0173 -144.39 152.322 -230.181 258.341 -329.191L257.146 -330.48C151.01 -231.353 76.5875 -145.445 35.9894 -75.1485C-0.670776 -11.6964 -10.9141 41.0201 5.54089 81.5479C27.4807 135.577 95.527 169.331 213.547 184.731C314.832 197.951 434.188 195.537 539.457 193.38C665.213 190.825 764.575 188.809 772.474 215.273C776.623 229.126 754.988 250.691 706.373 281.233C636.452 325.136 631.834 331.067 633.147 333.622C635.186 337.583 657.853 328.559 723.086 301.907C876.946 239.065 1197.11 108.293 1258.99 195.419C1302.45 256.598 1211.72 415.31 989.318 667.149C643.062 1059.25 636.124 1220.8 691.302 1287.3C718.773 1320.42 768.865 1337.58 835.598 1337.58Z" fill="#99CCFF"/>
<path d="M851.022 1351.6C872.586 1351.6 895.745 1349.86 920.381 1346.37C1011.56 1333.41 1111.81 1297.76 1188.56 1251.04C1273.67 1199.24 1312.11 1144.46 1294.04 1100.79L1292.42 1101.47C1310.14 1144.25 1271.93 1198.23 1187.67 1249.54C1111.11 1296.14 1011.12 1331.7 920.17 1344.64C816.846 1359.33 739.119 1342.76 701.287 1297.97C664.205 1254.06 664.674 1184.82 702.646 1092.12C746.901 984.129 841.903 845.786 985.051 680.932C1099.86 548.707 1179.11 441.071 1220.62 361C1257.45 289.977 1265.42 238.901 1244.34 209.202C1216.71 170.269 1138.51 167.292 1011.87 200.412C906.176 228.048 788.929 274.623 711.343 305.471C666.478 323.308 627.732 338.708 624.685 336.458C624.661 331.981 678.316 298.485 695.943 287.492C744.815 256.997 765.559 235.76 761.223 220.688C753.066 192.326 653.446 192.443 527.292 192.607C323.504 192.912 44.5214 193.263 -4.74951 69.3829C-20.9231 28.7614 -11.2893 -23.5099 23.8473 -86.0009C62.9686 -155.547 134.953 -239.978 237.808 -336.95L236.612 -338.239C133.617 -241.127 61.5153 -156.555 22.3236 -86.8682C-13.0942 -23.9084 -22.7515 28.8785 -6.39038 70.0157C43.3494 194.998 323.012 194.646 527.292 194.341C652.719 194.177 751.753 194.037 759.535 221.133C763.567 235.151 742.448 256.364 695.005 285.968C626.349 328.793 621.849 334.677 623.161 337.279C625.201 341.31 647.586 332.661 711.975 307.088C863.82 246.753 1179.77 121.232 1242.91 210.21C1287.22 272.678 1200.02 430.64 983.715 679.76C645.664 1069.1 642.804 1231.44 699.927 1299.09C729.087 1333.64 781.592 1351.6 851.022 1351.6Z" fill="#003366"/>
<path d="M866.211 1366.01C976.472 1366.01 1110.81 1322.18 1198.21 1267.87C1278.03 1218.29 1313.28 1165.11 1294.95 1121.93L1293.33 1122.61C1311.29 1164.9 1276.29 1217.31 1197.3 1266.37C1057.86 1353 798.727 1413.08 710.147 1310.06C671.753 1265.41 670.44 1195.79 706.209 1103.13C747.932 995.122 839.934 857.295 979.66 693.473C1091.26 562.631 1168 455.838 1207.75 376.072C1243.03 305.307 1250.02 254.043 1228.55 223.759C1200.37 184.005 1122.55 179.504 997.24 210.421C892.651 236.205 776.904 280.859 700.326 310.417C655.977 327.528 617.676 342.318 614.746 339.928C614.535 335.427 667.299 302.728 684.645 291.993C731.689 262.833 752.55 241.362 748.401 226.314C740.432 197.319 641.023 195.537 515.173 193.31C311.527 189.677 32.6375 184.708 -16.9615 57.4052C-33.0414 16.1742 -23.9701 -36.1674 9.97095 -98.1662C47.7094 -167.103 117.42 -250.221 217.157 -345.2L215.938 -346.466C116.06 -251.347 46.256 -168.088 8.42383 -99.01C-25.7751 -36.5424 -34.8698 16.2914 -18.6024 58.038C31.4186 186.419 311.011 191.412 515.15 195.045C640.273 197.272 739.096 199.03 746.714 226.759C750.605 240.94 730.001 261.779 683.707 290.469C616.293 332.239 611.887 338.076 613.199 340.724C615.239 344.826 637.343 336.552 700.935 312.01C850.811 254.184 1162.7 133.843 1227.09 224.72C1272.26 288.477 1188.56 445.783 978.301 692.301C648.359 1079.15 649.625 1242.39 708.811 1311.21C742.283 1350.17 799.899 1366.01 866.211 1366.01Z" fill="#1AA3FF"/>
<path d="M883.158 1380.76C902.449 1380.76 922.865 1379.47 944.313 1376.82C1035.21 1365.66 1136.05 1330.62 1207.47 1285.36C1282.5 1237.82 1314.88 1185.99 1296.26 1143.22L1294.65 1143.92C1312.88 1185.83 1280.77 1236.83 1206.54 1283.88C1135.33 1329 1034.74 1363.95 944.102 1375.08C839.981 1387.86 760.144 1369.2 719.289 1322.53C679.511 1277.13 676.393 1207.09 709.959 1114.41C749.151 1006.28 838.176 868.874 974.55 706.013C1082.98 576.507 1157.26 470.534 1195.28 391.003C1229.01 320.472 1235.04 269.021 1213.15 238.103C1184.43 197.529 1106.96 191.505 982.918 220.195C879.384 244.151 765.114 286.905 689.496 315.174C645.617 331.582 607.714 345.763 604.948 343.232C604.55 338.731 656.446 306.806 673.487 296.305C719.382 268.06 739.752 246.94 735.767 231.775C727.985 202.146 628.763 198.443 503.148 193.778C299.478 186.184 20.5656 175.8 -29.3383 45.0046C-45.3009 3.16422 -36.7687 -49.2242 -4.02307 -110.754C32.3793 -179.082 99.8397 -260.887 196.483 -353.897L195.264 -355.163C98.4801 -262.036 30.9026 -180.066 -5.57007 -111.575C-38.5735 -49.5992 -47.1292 3.30487 -30.979 45.6375C19.3467 177.534 298.939 187.942 503.078 195.536C627.966 200.177 726.602 203.857 734.056 232.22C737.83 246.565 717.718 267.028 672.549 294.805C606.355 335.543 602.065 341.333 603.378 344.029C605.37 348.084 626.185 340.7 690.082 316.815C838.059 261.45 1145.99 146.265 1211.67 239.088C1257.71 304.157 1177.47 460.854 973.144 704.841C651.172 1089.47 656.657 1253.66 717.976 1323.68C750.792 1361.16 808.337 1380.76 883.158 1380.76Z" fill="#E6F7FF"/>
<path d="M899.894 1395.95C917.779 1395.95 936.601 1394.87 956.244 1392.64C1047.4 1382.42 1147.09 1348.25 1216.4 1303.48C1287.17 1257.77 1316.92 1207.16 1298 1164.66L1296.38 1165.37C1314.92 1207 1285.41 1256.78 1215.44 1302C1085 1386.27 824.347 1442.54 728.759 1335.35C687.551 1289.15 682.558 1218.69 713.921 1125.92C750.534 1017.62 836.583 880.547 969.722 718.507C1168.73 476.254 1245.56 319.394 1198.12 252.238C1168.84 210.796 1091.7 203.249 968.878 229.759C866.375 251.887 753.511 292.742 678.831 319.769C635.42 335.497 597.917 349.045 595.315 346.373C594.916 343.42 617.512 327.949 662.541 300.454C707.311 273.1 727.212 252.379 723.367 237.049C715.773 206.788 616.692 201.139 491.241 194.013C287.43 182.434 8.33032 166.565 -41.8782 32.16C-57.7236 -10.243 -49.7073 -62.7017 -18.1101 -123.739C16.9561 -191.481 82.1897 -271.974 175.809 -363.015L174.59 -364.281C80.8536 -273.099 15.4795 -192.442 -19.6571 -124.536C-51.5121 -63.0064 -59.5286 -10.0789 -43.519 32.8163C7.06445 168.299 286.844 184.215 491.147 195.818C615.872 202.897 714.39 208.499 721.68 237.518C725.313 252.004 705.67 272.092 661.65 299.001C596.651 338.708 592.455 344.451 593.768 347.194C595.76 351.342 616.34 344.31 679.464 321.456C825.613 268.552 1129.72 158.455 1196.71 253.293C1243.64 319.698 1166.83 475.856 968.386 717.428C835.129 879.633 748.964 1016.9 712.28 1125.38C680.707 1218.79 685.816 1289.83 727.469 1336.55C762.207 1375.48 822.355 1395.95 899.894 1395.95Z" fill="#80CFFF"/>
<path d="M917.052 1411.56C933.413 1411.56 950.478 1410.67 968.222 1408.88C1059.47 1399.65 1157.92 1366.41 1225.15 1322.18C1293.03 1277.48 1319.66 1229.22 1300.13 1186.3L1298.54 1187.03C1317.67 1229.05 1291.25 1276.52 1224.19 1320.68C1157.19 1364.79 1059.05 1397.91 968.058 1407.13C863.961 1417.65 782.46 1396.86 738.58 1348.57C695.872 1301.58 688.981 1230.62 718.117 1137.73C752.152 1029.2 835.27 892.361 965.198 731.047C1158.39 491.138 1231.83 334.747 1183.49 266.255C1153.63 223.946 1076.82 214.828 955.142 239.182C853.6 259.504 742.119 298.462 668.354 324.246C625.341 339.271 588.212 352.256 585.798 349.42C585.212 346.49 607.41 331.371 651.735 304.486C695.38 278.022 714.812 257.676 711.108 242.229C703.725 211.312 604.714 203.717 479.38 194.107C275.312 178.472 -4.18677 157.048 -54.6531 18.9161C-70.3578 -24.0494 -62.8571 -76.5315 -32.385 -137.1C1.39197 -204.233 64.4457 -283.436 155.041 -372.555L153.799 -373.821C63.0627 -284.585 -0.131592 -205.194 -33.979 -137.921C-64.6619 -76.9066 -72.1862 -23.9556 -56.3174 19.4787C-5.47595 158.665 274.679 180.136 479.216 195.818C603.847 205.381 702.295 212.906 709.374 242.581C712.866 257.184 693.692 276.92 650.797 302.939C586.97 341.615 582.868 347.334 584.181 350.123C586.173 354.343 606.519 347.662 668.893 325.84C813.26 275.373 1113.67 170.362 1182.02 267.193C1229.86 334.981 1156.44 490.646 963.791 729.875C833.746 891.353 750.511 1028.38 716.406 1137.12C687.082 1230.67 694.091 1302.19 737.244 1349.68C774.021 1390.23 836.84 1411.56 917.052 1411.56Z" fill="#336699"/>
<path d="M934.632 1427.59C949.329 1427.59 964.542 1426.89 980.27 1425.48C1071.47 1417.3 1168.61 1385.07 1233.73 1341.38C1298.07 1298.22 1322.56 1250.88 1302.69 1208.1L1301.09 1208.85C1320.57 1250.76 1296.29 1297.31 1232.77 1339.92C1167.88 1383.45 1071.08 1415.57 980.129 1423.72C876.267 1433.05 794.086 1411.18 748.706 1362.17C704.428 1314.35 695.615 1242.88 722.5 1149.78C753.933 1040.92 834.145 904.221 960.908 743.517C1148.33 505.859 1218.42 349.912 1169.15 280.014C1138.7 236.814 1062.15 226.149 941.617 248.323C841.013 266.817 730.868 303.923 657.97 328.488C615.286 342.857 578.438 355.28 576.328 352.233C575.508 349.373 597.26 334.583 641.023 308.259C683.566 282.686 702.529 262.692 699.013 247.151C691.864 215.578 592.9 206.038 467.59 193.919C263.123 174.159 -16.9144 147.109 -67.6385 5.18021C-83.1793 -38.3244 -76.1943 -90.83 -46.824 -150.907C-14.3362 -217.406 46.5845 -295.344 134.227 -382.564L132.984 -383.807C45.2014 -296.469 -15.8129 -218.367 -48.3944 -151.68C-77.9523 -91.1582 -84.9843 -38.1838 -69.2794 5.7662C-18.1802 148.75 262.49 175.87 467.426 195.677C592.033 207.725 690.434 217.218 697.302 247.55C700.631 262.27 681.926 281.632 640.132 306.759C577.453 344.451 573.445 350.123 574.758 352.959C576.75 357.272 596.862 350.92 658.556 330.129C801.212 282.077 1098.03 182.082 1167.74 281.022C1216.5 350.217 1146.46 505.437 959.525 742.415C832.621 903.307 752.292 1040.2 720.812 1149.29C693.739 1243.02 702.693 1315.05 747.417 1363.36C786.257 1405.35 851.795 1427.59 934.632 1427.59Z" fill="#004080"/>
<path d="M952.634 1443.93C1057.39 1443.93 1172.03 1409.1 1242.23 1361.14C1303.34 1319.39 1325.85 1272.86 1305.59 1230.13L1304 1230.88C1323.83 1272.75 1301.54 1318.48 1241.23 1359.68C1119.39 1442.94 863.281 1486.57 759.16 1376.23C713.241 1327.57 702.412 1255.54 727.024 1162.16C755.832 1052.9 833.137 916.246 956.83 756.034C1138.63 520.532 1205.36 364.961 1155.18 293.656C1124.14 249.542 1047.82 237.33 928.35 257.324C828.636 274.014 719.757 309.267 647.726 332.59C606.988 345.787 568.499 358.234 566.999 354.905C566.155 353.053 576.492 344.076 630.451 311.893C671.893 287.187 690.411 267.568 687.082 251.933C680.191 219.727 581.204 208.171 455.87 193.521C250.887 169.589 -29.8536 136.796 -80.8357 -9.04776C-96.2123 -53.0446 -89.696 -105.597 -61.4274 -165.182C-30.1819 -231.071 28.6056 -307.744 113.341 -393.042L112.099 -394.284C27.2462 -308.822 -31.682 -232.009 -62.9978 -165.932C-91.454 -105.902 -98.0172 -52.9274 -82.4764 -8.46176C-31.1194 138.437 250.254 171.276 455.706 195.279C580.336 209.835 678.761 221.321 685.394 252.308C688.559 267.122 670.299 286.132 629.584 310.393C568.03 347.1 564.116 352.725 565.428 355.632C567.515 360.226 590.884 352.842 648.312 334.254C789.304 288.593 1082.68 193.591 1153.8 294.664C1203.49 365.266 1136.78 520.134 955.493 754.956C831.66 915.355 754.238 1052.22 725.383 1161.71C700.607 1255.7 711.553 1328.27 757.941 1377.43C802.501 1424.71 874.836 1443.9 952.634 1443.93Z" fill="#008CBA"/>
<path d="M971.034 1461.16C1073.8 1461.16 1183.85 1427.87 1250.74 1381.34C1308.9 1340.89 1329.55 1295.06 1308.92 1252.31L1307.33 1253.08C1327.53 1294.94 1307.09 1339.99 1249.74 1379.89C1131.53 1462.14 878.001 1502.93 770.036 1390.7C722.383 1341.17 709.514 1268.53 731.829 1174.84C757.965 1065.09 832.387 928.388 953.056 768.527C1129.28 535.065 1192.68 379.822 1141.56 307.064C1109.92 262.036 1033.78 248.23 915.317 266.068C816.448 280.952 708.811 314.378 637.6 336.481C597.33 348.998 559.264 360.812 557.764 357.366C556.92 355.468 567.046 346.607 620.02 315.315C660.384 291.477 678.48 272.232 675.292 256.504C668.682 223.641 569.601 210.07 444.173 192.865C238.534 164.69 -43.0737 126.084 -94.3136 -23.7914C-109.526 -68.2805 -103.455 -120.81 -76.2649 -179.902C-46.2383 -245.159 10.4631 -320.565 92.3157 -404.012L91.0498 -405.254C9.08008 -321.667 -47.7618 -246.096 -77.8589 -180.652C-105.237 -121.138 -111.331 -68.1633 -95.9779 -23.2288C-44.3865 127.678 237.854 166.354 443.939 194.599C568.663 211.687 667.182 225.188 673.557 256.832C676.558 271.74 658.743 290.352 619.106 313.792C558.701 349.491 554.881 355.233 556.123 358.07C558.186 362.734 581.321 355.773 638.093 338.146C777.49 294.875 1067.54 204.819 1140.08 308.049C1190.74 380.103 1127.33 534.667 951.626 767.426C830.816 927.474 756.277 1064.39 730.095 1174.39C707.639 1268.71 720.648 1341.87 768.747 1391.87C816.166 1441.16 891.432 1461.16 971.034 1461.16Z" fill="#006494"/>
<path d="M989.716 1478.38C998.74 1478.38 1007.95 1478.13 1017.3 1477.63C1107.6 1472.76 1200.35 1443.79 1259.3 1402.02C1314.76 1362.73 1333.72 1317.52 1312.67 1274.69L1311.1 1275.46C1331.73 1317.42 1312.95 1361.86 1258.29 1400.59C1199.57 1442.17 1107.2 1471.02 1017.21 1475.88C914.966 1481.36 831.191 1456.44 781.311 1405.63C731.829 1355.21 716.874 1281.91 736.869 1187.82C760.285 1077.49 831.848 940.624 949.563 780.997C1120.25 549.551 1180.38 394.565 1128.29 320.331C1096.02 274.342 1020.09 258.989 902.613 274.646C804.54 287.726 698.122 319.323 627.685 340.232C587.814 352.069 550.169 363.25 548.622 359.71C547.778 357.765 557.693 349.045 609.707 318.573C648.992 295.578 666.666 276.709 663.666 260.934C657.337 227.415 558.139 211.804 432.571 192.02C226.181 159.509 -56.505 114.997 -108.003 -39.0042C-123.028 -83.9621 -117.402 -136.444 -91.2665 -195.068C-62.4353 -259.692 -7.77319 -333.856 71.2196 -415.451L69.9537 -416.669C-9.17969 -334.911 -63.9589 -260.606 -92.8604 -195.794C-119.183 -136.772 -124.833 -83.8449 -109.667 -38.4651C-57.8412 116.544 225.455 161.15 432.289 193.732C557.178 213.398 655.813 228.938 661.931 261.239C664.767 276.193 647.375 294.453 608.793 317.049C549.466 351.787 545.716 357.507 546.981 360.39C549.044 365.148 571.945 358.585 628.154 341.896C766.005 300.993 1052.82 215.859 1126.82 321.315C1178.43 394.847 1118.31 549.152 948.11 779.943C830.254 939.756 758.574 1076.86 735.111 1187.45C714.999 1282.14 730.118 1355.96 780.022 1406.85C825.706 1453.37 899.472 1478.38 989.716 1478.38Z" fill="#001F3F"/>
<path d="M1008.8 1496.25C1015.8 1496.25 1022.88 1496.11 1030.06 1495.8C1119.83 1492.07 1210.99 1464.23 1267.95 1423.14C1320.92 1384.93 1338.29 1340.25 1316.82 1297.29L1315.25 1298.08C1336.3 1340.16 1319.12 1384.09 1266.94 1421.71C1210.24 1462.59 1119.43 1490.32 1029.99 1494.04C928.491 1498.26 844.365 1472.36 793.031 1421.07C741.65 1369.74 724.516 1295.76 742.143 1201.21C762.817 1090.19 831.519 953.047 946.329 793.538C1111.56 563.99 1168.42 409.192 1115.35 333.458C1082.44 286.507 1006.64 269.537 890.096 283.062C792.797 294.36 687.504 324.129 617.84 343.818C578.391 354.976 541.121 365.524 539.598 361.867C538.355 358.961 558.537 345.436 599.534 321.644C637.788 299.47 655.016 280.999 652.227 265.154C646.203 230.978 546.841 213.304 421.038 190.896C213.758 153.978 -70.1471 103.441 -121.879 -54.7555C-136.717 -100.135 -131.513 -152.594 -106.409 -210.678C-78.7496 -274.67 -26.1033 -347.568 50.1001 -427.334L48.8345 -428.553C-27.5096 -348.623 -80.2732 -275.56 -108.003 -211.382C-133.271 -152.875 -138.498 -99.9948 -123.52 -54.2164C-71.5066 105.012 212.985 155.665 420.71 192.654C545.833 214.922 644.656 232.525 650.469 265.482C653.118 280.507 636.17 298.368 598.62 320.144C546.044 350.616 536.433 358.984 537.933 362.57C539.996 367.446 562.663 361.258 618.286 345.529C754.636 306.971 1038.38 226.735 1113.88 334.466C1166.48 409.521 1109.61 563.615 944.875 792.507C829.902 952.227 761.106 1089.63 740.408 1200.88C722.688 1296.04 739.986 1370.54 791.789 1422.32C839.841 1470.3 916.349 1496.25 1008.8 1496.25Z" fill="#0066CC"/>
<path d="M1028.2 1514.58C1033.13 1514.58 1038.07 1514.51 1043.07 1514.37C1132.18 1511.76 1221.73 1485.07 1276.74 1444.7C1327.44 1407.5 1343.29 1363.27 1321.37 1320.12L1319.8 1320.91C1341.27 1363.2 1325.61 1406.63 1275.68 1443.27C1220.95 1483.42 1131.79 1510.01 1043 1512.58C942.414 1515.51 857.96 1488.67 805.197 1437.01C751.8 1384.74 732.439 1310.02 747.628 1214.92C765.489 1103.16 831.309 965.588 943.282 806.055C1103.12 578.312 1156.75 423.655 1102.67 346.397C1069.11 298.439 993.443 279.898 877.767 291.266C781.194 300.759 677.027 328.723 608.09 347.217C569.039 357.695 532.121 367.61 530.597 363.86C529.355 360.883 549.161 347.639 589.408 324.551C626.607 303.197 643.437 285.101 640.835 269.256C635.139 234.447 535.543 214.664 409.459 189.607C201.148 148.211 -84.1404 91.5336 -136.13 -70.9759C-150.78 -116.731 -145.975 -169.143 -121.879 -226.735C-95.3916 -290.07 -44.7142 -361.726 28.7467 -439.711L27.4574 -440.906C-46.1207 -362.78 -96.9152 -290.937 -123.496 -227.414C-147.757 -169.424 -152.562 -116.614 -137.795 -70.4602C-85.4531 93.0338 200.421 149.852 409.154 191.318C534.558 216.234 633.639 235.924 639.148 269.537C641.609 284.585 625.06 302.095 588.564 323.027C536.926 352.655 527.479 360.883 529.003 364.539C531.066 369.509 553.498 363.695 608.582 348.905C743.502 312.69 1024.24 237.33 1101.27 347.381C1154.85 423.96 1101.22 577.937 941.875 805.024C829.762 964.791 763.825 1102.59 745.917 1214.64C730.634 1310.32 750.159 1385.56 803.978 1438.26C854.467 1487.71 933.695 1514.58 1028.2 1514.58Z" fill="#9999FF"/>
<path d="M1047.89 1533.4C1050.71 1533.4 1053.54 1533.38 1056.38 1533.33C1144.75 1531.85 1232.63 1506.3 1285.69 1466.69C1334.26 1430.43 1348.7 1386.57 1326.31 1343.21L1324.74 1344C1346.68 1386.5 1332.43 1429.58 1284.62 1465.26C1231.83 1504.68 1144.35 1530.07 1056.31 1531.55C956.76 1533.23 872.071 1505.5 817.854 1453.51C762.348 1400.28 740.666 1324.76 753.394 1229.05C768.372 1116.4 831.332 978.316 940.516 818.596C1095.01 592.587 1145.43 438.024 1090.37 359.195C1056.15 310.229 980.551 290.047 865.695 299.282C769.802 306.994 666.69 333.153 598.479 350.475C558.116 360.719 523.284 369.556 521.737 365.711C520.518 362.664 539.926 349.725 579.446 327.27C615.637 306.713 632.045 289.016 629.655 273.147C624.287 237.682 524.409 215.766 397.974 188.013C188.537 142.047 -98.3217 79.0872 -150.546 -87.8056C-164.985 -133.936 -160.578 -186.254 -137.49 -243.307C-112.128 -305.985 -63.3959 -376.399 7.34607 -452.602L6.05688 -453.798C-64.8257 -377.43 -113.675 -306.829 -139.13 -243.963C-162.383 -186.512 -166.79 -133.795 -152.234 -87.2665C-99.681 80.6342 187.74 143.711 397.622 189.771C523.401 217.383 622.763 239.182 627.943 273.452C630.217 288.524 614.09 305.635 578.602 325.793C527.878 354.601 518.619 362.688 520.119 366.415C522.159 371.478 544.38 366.063 598.948 352.21C732.509 318.316 1010.39 247.785 1088.98 360.227C1143.6 438.375 1093.18 592.259 939.133 817.611C829.809 977.566 766.755 1115.91 751.73 1228.84C738.932 1325.13 760.778 1401.15 816.706 1454.8C869.68 1505.62 951.556 1533.4 1047.89 1533.4Z" fill="#00BFFF"/>
<path d="M1067.87 1552.71C1068.59 1552.71 1069.29 1552.71 1070.02 1552.71C1157.55 1552.34 1243.71 1527.96 1294.86 1489.1C1341.48 1453.7 1354.56 1410.15 1331.71 1366.51L1330.16 1367.33C1352.57 1410.13 1339.65 1452.86 1293.8 1487.69C1242.91 1526.34 1157.17 1550.58 1070.02 1550.95C1069.29 1550.95 1068.59 1550.95 1067.87 1550.95C970.331 1550.95 886.346 1522.48 831.144 1470.63C773.412 1416.41 749.315 1340.04 759.535 1243.63C771.56 1130 831.637 991.231 938.078 831.183C1087.3 606.815 1134.53 452.275 1078.44 371.876C1043.53 321.855 967.987 300.079 853.905 307.158C758.668 313.065 656.587 337.443 589.033 353.569C549.044 363.109 514.517 371.36 512.97 367.422C511.751 364.305 530.808 351.671 569.601 329.871C604.784 310.112 620.817 292.789 618.614 276.944C613.598 240.846 513.415 216.773 386.558 186.301C175.832 135.671 -112.761 66.312 -165.243 -105.081C-179.471 -151.516 -175.463 -203.74 -153.336 -260.254C-129.075 -322.253 -82.2421 -391.448 -14.1722 -465.917L-15.4615 -467.112C-83.6954 -392.503 -130.622 -323.12 -154.976 -260.91C-177.244 -203.998 -181.276 -151.399 -166.931 -104.566C-114.144 67.7653 175.012 137.241 386.136 187.989C512.337 218.32 612.027 242.276 616.879 277.178C618.966 292.227 603.237 308.963 568.757 328.348C518.947 356.335 509.852 364.305 511.353 368.079C513.392 373.235 535.402 368.219 589.455 355.304C721.68 323.73 996.842 258.004 1077.01 372.907C1132.65 452.65 1085.42 606.51 936.624 830.245C830.019 990.528 769.849 1129.57 757.777 1243.47C747.511 1340.44 771.771 1417.3 829.926 1471.92C885.455 1524.05 969.886 1552.71 1067.87 1552.71Z" fill="#00C6B8"/>
<path d="M1087.84 1572.52C1173.06 1572.52 1255.71 1549.43 1304.26 1511.9C1349.05 1477.31 1360.84 1434.04 1337.5 1390.06L1335.95 1390.88C1358.85 1434.01 1347.22 1476.49 1303.18 1510.5C1254.19 1548.35 1170.13 1571.44 1084.02 1570.74C986.81 1569.94 901.91 1540.66 844.951 1488.3C784.874 1433.07 758.293 1355.79 765.911 1258.61C774.912 1143.87 832.082 1004.31 935.851 843.77C1079.87 620.949 1123.91 466.409 1066.79 384.393C1031.2 333.293 955.658 309.9 842.325 314.823C747.698 318.925 646.578 341.544 579.68 356.499C540.043 365.359 505.821 373.001 504.297 368.946C503.078 365.758 521.783 353.405 559.873 332.239C594.049 313.252 609.707 296.328 607.691 280.506C603.05 243.799 502.469 217.523 375.119 184.262C163.011 128.873 -127.481 52.9744 -180.221 -122.966C-209.521 -220.711 -160.93 -340.771 -35.8308 -479.77L-37.1434 -480.942C-102.752 -408.043 -147.827 -339.88 -171.079 -278.373C-192.386 -222.024 -196.043 -169.565 -181.909 -122.451C-128.887 54.4276 162.167 130.467 374.674 185.973C501.367 219.07 601.456 245.206 605.933 280.741C607.832 295.789 592.478 312.127 559.006 330.738C510.087 357.905 501.18 365.758 502.633 369.602C504.649 374.876 527.831 369.93 580.055 358.257C711.038 328.98 983.551 268.06 1065.36 385.447C1122.03 466.808 1077.99 620.715 934.398 842.879C830.488 1003.65 773.201 1143.5 764.176 1258.54C756.512 1356.29 783.28 1434.06 843.779 1489.66C901.066 1542.33 986.388 1571.77 1084.02 1572.57C1085.28 1572.52 1086.57 1572.52 1087.84 1572.52Z" fill="#99E6FF"/>
<path d="M1107.81 1592.84C1189.94 1592.84 1268.23 1571.04 1313.91 1535.13C1357 1501.29 1367.59 1458.23 1343.71 1413.88L1342.16 1414.72C1365.58 1458.2 1355.15 1500.49 1312.81 1533.75C1265.7 1570.78 1183.56 1592.68 1098.38 1590.99C1002.54 1589.04 917.661 1559.09 859.366 1506.65C796.828 1450.4 767.622 1372.15 772.591 1274.1C778.475 1158.15 832.715 1017.62 933.835 856.451C1072.69 635.107 1113.57 480.473 1055.39 396.816C1019.09 344.639 943.563 319.581 830.887 322.347C736.822 324.668 636.639 345.482 570.351 359.265C531.065 367.446 497.148 374.501 495.601 370.305C494.405 367.047 512.759 354.976 550.146 334.442C583.36 316.229 598.62 299.704 596.815 283.906C592.572 246.589 491.546 218.086 363.68 182.012C150.048 121.748 -142.53 39.192 -195.551 -141.413C-224.382 -239.603 -177.995 -358.28 -57.677 -494.162L-58.9896 -495.334C-122.043 -424.123 -165.267 -357.178 -187.464 -296.352C-207.834 -240.564 -211.115 -188.27 -197.215 -140.921C-143.889 40.6453 149.228 123.342 363.259 183.723C490.514 219.633 591.002 247.972 595.127 284.14C596.838 299.142 581.86 315.104 549.349 332.942C501.297 359.312 492.554 367.024 493.983 370.938C495.976 376.306 518.947 371.782 570.749 361C700.513 334.02 970.542 277.858 1053.99 397.824C1111.74 480.848 1070.82 634.849 932.382 855.537C831.098 1016.99 776.764 1157.8 770.857 1274.03C765.864 1372.65 795.258 1451.36 858.218 1507.99C916.818 1560.71 1002.12 1590.8 1098.38 1592.77C1101.52 1592.82 1104.67 1592.84 1107.81 1592.84Z" fill="#00509E"/>
<path d="M1127.87 1613.68C1206.82 1613.68 1280.89 1593.1 1323.83 1558.78C1365.32 1525.62 1374.74 1482.72 1350.34 1438L1348.79 1438.84C1372.73 1482.74 1363.47 1524.84 1322.73 1557.42C1277.44 1593.62 1197.16 1614.43 1113.2 1611.69C1018.83 1608.62 934.07 1578.1 874.509 1525.71C809.345 1468.4 777.444 1389.12 779.67 1290.11C782.319 1172.8 833.606 1031.17 932.148 869.155C1065.9 649.218 1103.66 494.443 1044.4 409.098C1007.37 355.796 931.843 329.098 819.753 329.684C726.204 330.199 626.935 349.256 561.233 361.867C522.276 369.344 488.616 375.814 487.092 371.524C485.287 366.485 526.94 343.912 540.629 336.505C572.883 319.042 587.767 302.892 586.173 287.187C582.329 249.261 480.834 218.508 352.336 179.551C137.086 114.317 -157.742 24.9638 -211.045 -160.4C-239.407 -258.965 -195.176 -376.259 -79.593 -509.023L-80.9292 -510.171C-141.451 -440.648 -182.893 -374.899 -204.059 -314.776C-223.515 -259.551 -226.421 -207.444 -212.756 -159.908C-159.172 26.3702 136.195 115.888 351.843 181.238C479.709 219.985 580.712 250.597 584.439 287.375C585.962 302.306 571.359 317.87 539.809 334.981C492.624 360.554 484.022 368.149 485.451 372.134C487.42 377.618 510.204 373.47 561.585 363.625C690.2 338.919 957.838 287.539 1042.97 410.106C1101.81 494.819 1064.02 648.96 930.671 868.241C831.988 1030.52 780.585 1172.45 777.936 1290.07C775.686 1389.62 807.798 1469.36 873.36 1527.02C933.226 1579.67 1018.38 1610.38 1113.15 1613.45C1118.07 1613.61 1123 1613.68 1127.87 1613.68Z" fill="#4DB8FF"/>
<path d="M1148.01 1635.03C1223.72 1635.03 1293.73 1615.63 1334.05 1582.86C1374.04 1550.35 1382.34 1507.57 1357.4 1462.38L1355.85 1463.22C1380.34 1507.57 1372.19 1549.57 1332.95 1581.47C1249.99 1648.91 1027.6 1663.49 890.354 1545.47C822.448 1487.08 787.71 1406.73 787.101 1306.64C786.397 1187.82 834.707 1044.93 930.671 881.883C1059.38 663.258 1094.02 508.297 1033.67 421.264C946.165 295.086 680.074 341.849 552.185 364.328C513.509 371.126 480.13 376.986 478.607 372.579C476.825 367.422 517.728 345.576 531.159 338.38C562.452 321.644 577.008 305.916 575.602 290.281C572.179 251.769 470.145 218.695 340.991 176.855C123.96 106.512 -173.283 10.1966 -226.914 -179.949C-254.784 -278.795 -212.662 -394.683 -101.721 -524.4L-103.057 -525.548C-161.118 -457.666 -200.802 -393.112 -220.96 -333.715C-239.501 -279.076 -242.079 -227.18 -228.625 -179.48C-174.713 11.5796 123.046 108.082 340.475 178.543C469.02 220.196 570.562 253.105 573.89 290.469C575.203 305.33 560.975 320.495 530.362 336.856C484.162 361.562 475.607 369.227 476.966 373.188C478.912 378.791 501.531 375.064 552.513 366.086C680.027 343.677 945.368 297.032 1032.24 422.295C1092.17 508.719 1057.5 663.047 929.171 881.04C833.02 1044.35 784.639 1187.54 785.343 1306.69C785.952 1407.29 820.878 1488.09 889.205 1546.83C950.243 1599.31 1035.19 1630.51 1128.34 1634.64C1134.93 1634.89 1141.49 1635.03 1148.01 1635.03Z" fill="#66D9FF"/>
<path d="M1169.2 1656.93C1241.95 1656.93 1306.3 1638.95 1344.6 1607.3C1383.18 1575.4 1390.4 1532.69 1364.87 1487.03L1363.35 1487.9C1388.41 1532.74 1381.33 1574.65 1343.47 1605.97C1255.22 1678.91 1036.48 1674.81 906.973 1566C837.146 1507.36 798.423 1423.58 794.93 1323.75C790.734 1203.29 835.997 1058.93 929.476 894.705C1053.17 677.322 1084.74 522.102 1023.26 433.335C933.976 304.415 670.065 346.443 543.231 366.648C503.266 373.001 471.716 378.04 470.216 373.516C468.458 368.266 508.611 347.099 521.807 340.138C552.185 324.128 566.367 308.775 565.171 293.258C562.171 254.16 459.574 218.765 329.67 173.948C110.74 98.401 -189.104 -5.03973 -243.063 -200.061C-270.465 -299.095 -230.406 -413.575 -123.988 -540.292L-125.324 -541.417C-180.994 -475.129 -218.92 -411.771 -238.094 -353.1C-255.744 -299.071 -257.995 -247.409 -244.751 -199.592C-190.534 -3.68024 109.779 99.9246 329.084 175.589C458.379 220.195 560.507 255.426 563.413 293.375C564.538 308.119 550.662 322.909 520.987 338.567C475.63 362.499 467.216 370.047 468.552 374.055C470.45 379.751 492.906 376.446 543.513 368.383C669.995 348.248 933.156 306.314 1021.81 434.343C1082.87 522.501 1051.27 677.111 927.929 893.837C834.309 1058.36 788.953 1203.01 793.172 1323.82C796.665 1424.17 835.622 1508.36 905.825 1567.36C967.988 1619.59 1052.56 1651.16 1144 1656.25C1152.51 1656.69 1160.9 1656.93 1169.2 1656.93Z" fill="#0099FF"/>
<path d="M1189.52 1679.34C1258.9 1679.34 1319.59 1662.36 1355.47 1632.2C1392.74 1600.88 1398.88 1558.2 1372.8 1512.02L1371.27 1512.89C1396.89 1558.24 1390.89 1600.13 1354.35 1630.86C1313.82 1664.92 1241.27 1682.03 1160.29 1676.62C1071.1 1670.64 987.325 1638.95 924.436 1587.33C829.363 1509.33 703.443 1317.3 928.514 907.573C1047.28 691.363 1075.74 535.815 1013.16 445.29C922.092 313.58 660.243 350.873 534.418 368.805C494.734 374.454 463.394 378.931 461.894 374.267C460.183 368.899 499.586 348.412 512.548 341.685C542.012 326.379 555.842 311.447 554.857 296.024C552.302 256.387 449.073 218.602 318.371 170.784C97.3788 89.8925 -205.185 -20.8146 -259.542 -220.781C-286.498 -319.932 -248.455 -432.96 -146.468 -556.747L-147.827 -557.872C-201.13 -493.177 -237.391 -430.991 -255.581 -373.047C-272.364 -319.604 -274.262 -268.224 -261.253 -220.336C-206.638 -19.4785 96.4177 91.4161 317.715 172.401C447.807 220.008 550.568 257.606 553.052 296.118C553.99 310.744 540.465 325.136 511.681 340.091C467.121 363.25 458.87 370.704 460.183 374.759C462.058 380.572 484.35 377.665 534.628 370.493C660.103 352.631 921.224 315.432 1011.68 446.251C1073.87 536.19 1045.36 691.105 926.944 906.683C835.809 1072.61 793.57 1218.93 801.423 1341.54C807.939 1443.13 850.084 1528.59 923.311 1588.65C986.481 1640.47 1070.61 1672.33 1160.15 1678.3C1170.09 1679.01 1179.88 1679.34 1189.52 1679.34Z" fill="#0A3D62"/>
<path d="M1209.79 1702.26C1275.87 1702.26 1333.04 1686.23 1366.65 1657.49C1402.66 1626.71 1407.79 1584.03 1381.12 1537.31L1379.59 1538.18C1413.21 1597.01 1390.49 1634.82 1365.53 1656.15C1326.78 1689.27 1256.28 1705.38 1176.95 1699.21C1089.76 1692.44 1006.59 1660.58 942.789 1609.48C843.192 1529.74 708.811 1334.18 927.787 920.466C1041.66 705.333 1067.07 549.434 1003.31 457.104C910.395 322.535 650.516 355.093 525.627 370.751C486.201 375.697 455.049 379.588 453.573 374.806C451.885 369.344 490.584 349.514 503.289 343.021C531.862 328.395 545.364 313.862 544.567 298.602C542.481 258.426 438.548 218.227 306.979 167.339C83.9238 81.0558 -221.57 -37.1287 -276.326 -242.041C-302.836 -341.216 -266.762 -452.79 -169.111 -573.67L-170.471 -574.772C-221.476 -511.625 -256.073 -450.634 -273.325 -393.44C-289.241 -340.63 -290.835 -289.531 -278.013 -241.596C-223.046 -35.816 82.916 82.556 306.346 168.979C437.329 219.656 540.793 259.669 542.809 298.696C543.559 313.206 530.386 327.176 502.492 341.474C458.729 363.883 450.619 371.22 451.908 375.345C453.737 381.275 475.888 378.767 525.862 372.509C650.398 356.898 909.574 324.433 1001.88 458.112C1065.22 549.856 1039.78 705.122 926.24 919.645C706.678 1334.49 841.669 1530.77 941.687 1610.87C1005.77 1662.18 1089.27 1694.17 1176.81 1700.97C1187.99 1701.84 1199.01 1702.26 1209.79 1702.26Z" fill="#002B40"/>
<path d="M1230.07 1725.72C1292.91 1725.72 1346.75 1710.56 1378.23 1683.2C1413.07 1652.94 1417.21 1610.21 1389.91 1562.89L1388.38 1563.78C1422.77 1623.38 1401.23 1660.89 1377.09 1681.87C1301.66 1747.43 1099.72 1740.05 962.08 1632.55C857.679 1551 714.343 1351.76 927.295 933.451C1036.31 719.327 1058.68 563.029 993.748 468.87C898.956 331.395 640.929 359.218 516.931 372.579C477.74 376.798 446.775 380.15 445.322 375.251C443.681 369.672 481.654 350.522 494.148 344.24C521.83 330.293 535.004 316.159 534.394 301.064C532.777 260.395 428.117 217.711 295.611 163.705C70.329 71.8438 -238.259 -53.9587 -293.46 -263.911C-319.525 -363.039 -285.373 -473.136 -191.988 -591.18L-193.371 -592.282C-242.126 -530.658 -275.13 -470.816 -291.444 -414.396C-306.539 -362.195 -307.782 -311.424 -295.194 -263.489C-239.735 -52.6695 69.3212 73.3205 294.978 165.323C426.898 219.094 531.089 261.567 532.66 301.134C533.222 315.479 520.377 329.074 493.374 342.693C450.409 364.352 442.416 371.571 443.658 375.767C445.439 381.814 467.473 379.705 517.142 374.36C640.812 361.023 898.113 333.27 992.318 469.902C1056.85 563.474 1034.44 719.186 925.748 932.678C839.489 1102.1 803.696 1252.31 819.354 1379.07C832.27 1483.52 881.236 1571.65 961.002 1633.96C1025.86 1684.61 1108.6 1716.63 1194 1724.13C1206.28 1725.18 1218.33 1725.72 1230.07 1725.72Z" fill="#00C6B8"/>
<path d="M1250.35 1749.7C1310.02 1749.7 1360.72 1735.36 1390.19 1709.34C1423.9 1679.55 1427.06 1636.75 1399.14 1588.81L1397.62 1589.7C1425.49 1637.52 1422.51 1678.45 1389.02 1708.03C1353.74 1739.2 1287.54 1753.41 1211.9 1746.05C1129.14 1737.98 1047.66 1706.2 982.426 1656.53C872.915 1573.13 720.086 1369.97 927.084 946.508C1031.3 733.297 1050.61 576.531 984.512 480.544C887.776 340.068 631.506 363.156 508.329 374.267C469.348 377.783 438.571 380.549 437.141 375.533C435.548 369.86 472.817 351.366 485.076 345.295C511.915 332.005 524.76 318.269 524.338 303.361C523.19 262.2 417.757 217.031 284.289 159.838C56.6166 62.304 -255.229 -71.3041 -310.923 -286.343C-336.566 -385.33 -304.313 -493.974 -215.03 -609.229L-216.413 -610.307C-262.988 -550.183 -294.397 -491.466 -309.821 -435.82C-324.096 -384.252 -325.034 -333.832 -312.61 -285.921C-256.682 -70.0383 55.5852 63.7338 283.609 161.432C416.514 218.367 521.502 263.349 522.604 303.384C523.002 317.566 510.485 330.739 484.326 343.701C442.134 364.61 434.282 371.735 435.477 375.978C437.212 382.166 459.128 380.455 508.516 376.001C631.342 364.938 886.932 341.896 983.083 481.528C1048.81 576.976 1029.42 733.157 925.537 945.734C841.692 1117.27 809.252 1269.72 829.129 1398.85C845.443 1504.92 898.113 1594.51 981.395 1657.94C1046.86 1707.79 1128.69 1739.72 1211.76 1747.8C1224.91 1749.07 1237.83 1749.7 1250.35 1749.7Z" fill="#B3E0FF"/>
<path d="M1271 1774.15C1327.16 1774.15 1374.72 1760.88 1402.49 1735.92C1435.12 1706.6 1437.35 1663.68 1408.78 1615.11L1407.25 1616C1435.78 1664.47 1433.72 1705.49 1401.32 1734.61C1333.18 1795.86 1144.72 1785.99 1003.87 1681.49C888.9 1596.19 726.039 1388.96 927.131 959.634C1026.59 747.291 1042.88 589.985 975.558 492.123C876.852 348.577 622.2 366.954 499.82 375.79C461.05 378.58 430.414 380.807 429.031 375.626C427.484 369.837 464.074 352.022 476.099 346.162C502.094 333.505 514.611 320.191 514.376 305.447C513.72 263.841 407.466 216.117 272.921 155.689C42.7869 52.3184 -272.434 -89.2592 -328.714 -309.408C-353.959 -408.184 -323.533 -515.328 -238.306 -627.863L-239.712 -628.918C-325.292 -515.937 -355.81 -408.301 -330.425 -308.962C-273.934 -87.9933 41.7321 53.7717 272.241 157.283C406.201 217.453 512.032 264.966 512.665 305.47C512.876 319.464 500.687 332.239 475.372 344.568C433.93 364.75 426.218 371.759 427.367 376.072C429.055 382.377 450.854 381.064 499.984 377.525C622.013 368.712 875.985 350.405 974.128 493.108C1041.07 590.431 1024.71 747.15 925.561 958.884C844.13 1132.76 815.158 1287.7 839.465 1419.41C859.366 1527.23 915.856 1618.34 1002.84 1682.9C1087.09 1745.41 1188.35 1774.15 1271 1774.15Z" fill="#33CCFF"/>
<path d="M1290.9 1799.3C1344.57 1799.3 1389.46 1786.48 1415.22 1762.92C1446.84 1734.02 1448.13 1690.98 1418.88 1641.71L1417.38 1642.6C1446.56 1691.78 1445.41 1732.94 1414.03 1761.61C1382.17 1790.72 1320.55 1803.24 1249.17 1795.08C1171.49 1786.2 1092.41 1755.07 1026.47 1707.44C929.241 1637.19 724.961 1424.99 927.389 972.854C1022.13 761.284 1035.4 603.392 966.862 503.608C866.117 356.944 613.012 370.563 491.382 377.126C452.776 379.212 422.304 380.853 420.944 375.555C419.444 369.672 455.354 352.49 467.168 346.841C492.343 334.793 504.555 321.901 504.508 307.368C504.367 265.317 397.223 214.991 261.552 151.281C28.7933 41.9574 -290.014 -107.754 -346.88 -333.059C-371.749 -431.554 -343.129 -537.198 -261.816 -647.061L-263.222 -648.116C-344.864 -537.808 -373.578 -431.671 -348.591 -332.637C-291.491 -106.512 27.7384 43.4341 260.826 152.899C395.911 216.351 502.633 266.466 502.773 307.392C502.82 321.175 490.936 333.574 466.442 345.271C425.75 364.726 418.155 371.641 419.28 376.001C420.921 382.423 442.603 381.533 491.522 378.884C612.848 372.344 865.297 358.749 965.456 504.593C1033.62 603.861 1020.31 761.167 925.819 972.127C846.802 1148.61 821.44 1306.29 850.436 1440.76C874.087 1550.49 934.632 1643.19 1025.49 1708.85C1091.66 1756.66 1171.05 1787.91 1249.03 1796.82C1263.4 1798.5 1277.42 1799.3 1290.9 1799.3Z" fill="#004F73"/>
<path d="M1312.34 1825.02C1362.95 1825.02 1404.04 1812.99 1428.35 1790.39C1458.98 1761.91 1459.38 1718.71 1429.45 1668.72L1427.95 1669.61C1457.84 1719.54 1457.56 1760.84 1427.15 1789.11C1366.33 1845.62 1192.24 1834.27 1050.31 1734.47C948.133 1662.6 731.642 1445.85 927.952 986.191C1018.01 775.302 1028.3 616.8 958.494 515.047C855.686 365.172 603.987 374.079 483.037 378.369C444.595 379.728 414.241 380.806 412.928 375.368C411.475 369.391 446.752 352.843 458.331 347.404C482.709 335.966 494.616 323.472 494.734 309.15C495.085 266.701 387.003 213.75 250.184 146.688C14.7057 31.2691 -307.805 -126.787 -365.374 -357.249C-389.892 -455.369 -363.006 -559.513 -285.537 -666.774L-286.967 -667.805C-364.764 -560.099 -391.744 -455.486 -367.085 -356.827C-309.329 -125.568 13.604 32.699 249.41 148.258C385.691 215.039 493.327 267.802 492.976 309.127C492.858 322.675 481.279 334.677 457.581 345.787C417.616 364.539 410.139 371.313 411.217 375.743C412.811 382.283 434.399 381.814 483.084 380.08C603.73 375.814 854.749 366.93 957.017 516.008C1026.45 617.222 1016.11 775.161 926.311 985.465C849.709 1164.83 828.074 1325.49 862.038 1462.98C896.894 1604.21 983.106 1689.32 1049.28 1735.85C1115.47 1782.4 1193.34 1813.06 1268.51 1822.2C1283.75 1824.1 1298.4 1825.02 1312.34 1825.02Z" fill="#0073E6"/>
<path d="M1331.59 1851.15C1379.95 1851.15 1419.3 1839.64 1441.9 1818.31C1471.62 1790.23 1471.1 1746.82 1440.47 1696.07L1438.97 1696.99C1469.56 1747.66 1470.17 1789.18 1440.68 1817.02C1383.95 1870.63 1219.99 1861.42 1075.39 1762.52C967.94 1689.04 738.557 1467.6 928.725 999.576C1014.16 789.319 1021.43 630.114 950.36 526.392C845.42 373.235 595.057 377.408 474.716 379.424C436.438 380.057 406.177 380.572 404.912 375.017C403.529 368.946 438.15 353.03 449.518 347.803C473.099 336.95 484.725 324.855 485.006 310.791C485.897 267.99 376.83 212.32 238.745 141.836C0.454346 20.1822 -325.948 -146.406 -384.243 -382.048C-408.41 -479.746 -383.259 -582.39 -309.493 -687.096L-310.923 -688.104C-384.993 -582.952 -410.238 -479.84 -385.954 -381.626C-327.448 -145.21 -0.647339 21.5886 237.972 143.383C375.494 213.586 484.139 269.021 483.272 310.744C482.99 324.058 471.716 335.661 448.815 346.209C409.576 364.234 402.216 370.915 403.224 375.415C404.748 382.072 426.242 382.002 474.763 381.205C594.776 379.189 844.505 375.04 948.931 527.424C1019.65 630.63 1012.31 789.272 927.108 998.943C852.944 1181.45 835.223 1345.36 874.415 1486.14C914.521 1630.18 1005.3 1716.75 1074.4 1764C1162.33 1824.1 1257.47 1851.15 1331.59 1851.15Z" fill="#0080FF"/>
<path d="M1353.01 1877.9C1398.28 1877.9 1434.61 1867.09 1455.87 1846.7C1476.26 1827.1 1492.15 1789.88 1451.95 1723.82L1450.45 1724.74C1481.79 1776.21 1483.22 1817.96 1454.65 1845.41C1427.34 1871.64 1374.53 1881.74 1309.74 1873.14C1240.9 1863.97 1167.06 1835.05 1101.81 1791.68C988.802 1716.56 745.823 1490.32 929.78 1013.1C1010.62 803.383 1014.91 643.428 942.531 537.714C835.411 381.205 586.243 380.619 466.512 380.338C428.328 380.244 398.184 380.173 396.965 374.478C395.653 368.313 429.617 353.03 440.775 347.99C463.605 337.724 474.927 326.004 475.372 312.198C476.779 269.068 366.681 210.656 227.307 136.702C-13.9379 8.69647 -344.371 -166.611 -403.487 -407.434C-427.349 -504.64 -403.886 -605.76 -333.706 -707.982L-335.16 -708.966C-405.62 -606.299 -429.177 -504.71 -405.198 -406.989C-345.895 -165.439 -15.0629 10.1028 226.486 138.249C365.321 211.921 474.974 270.099 473.614 312.151C473.192 325.23 462.222 336.435 440.048 346.396C399.239 364.75 394.387 370.915 395.231 374.853C396.684 381.65 418.132 381.978 466.488 382.096C585.915 382.377 834.45 382.963 941.055 538.698C1013.09 643.921 1008.73 803.336 928.116 1012.47C856.436 1198.42 842.794 1365.85 887.541 1510.12C933.155 1657.18 1028.7 1745.18 1100.8 1793.14C1166.27 1836.66 1240.38 1865.68 1309.48 1874.87C1324.7 1876.91 1339.28 1877.9 1353.01 1877.9Z" fill="#6699CC"/>
<path d="M1373.45 1905.18C1416.23 1905.18 1450.41 1894.94 1470.26 1875.55C1490.07 1856.21 1505.02 1819.06 1463.88 1751.98L1462.38 1752.89C1494.47 1805.21 1496.75 1847.19 1469.02 1874.29C1443.35 1899.37 1393.09 1908.88 1331.17 1900.4C1265.6 1891.42 1194 1863.55 1129.54 1821.92C1036.78 1762.03 748.378 1527.73 931.046 1026.72C1007.34 817.47 1008.66 656.742 934.937 548.965C825.566 389.034 577.523 383.69 458.308 381.111C418.741 380.267 390.168 379.635 389.019 373.821C387.777 367.563 421.108 352.89 432.078 348.061C454.159 338.333 465.199 327.035 465.785 313.487C467.707 270.053 362.063 211.874 215.821 131.358C-28.4943 -3.16406 -363.1 -187.379 -423.13 -433.429C-446.711 -530.095 -424.888 -629.715 -358.201 -729.523L-359.655 -730.507C-426.599 -630.278 -448.539 -530.166 -424.818 -433.007C-398.167 -323.73 -315.728 -217.171 -172.791 -107.285C-50.5748 -13.3136 96.6753 67.7419 215 132.882C355.195 210.07 465.949 271.037 464.074 313.393C463.511 326.215 452.823 337.021 431.399 346.444C399.028 360.695 386.253 368.712 387.331 374.15C388.714 381.064 410.092 381.814 458.308 382.869C577.219 385.424 824.651 390.769 933.507 549.95C1006.87 657.234 1005.49 817.447 929.405 1026.11C860.257 1215.79 850.857 1387.04 901.511 1535.11C952.939 1685.41 1053.38 1774.85 1128.57 1823.42C1193.25 1865.17 1265.11 1893.13 1330.91 1902.16C1345.84 1904.17 1360.07 1905.18 1373.45 1905.18Z" fill="#0033CC"/>
</g>
</svg>
