<svg width="375" height="1231" viewBox="0 0 375 1231" fill="none" xmlns="http://www.w3.org/2000/svg">
<mask id="mask0_797_8597" style="mask-type:luminance" maskUnits="userSpaceOnUse" x="-369" y="0" width="1053" height="1231">
<path d="M-369 0H683.298V1231H-369V0Z" fill="white"/>
</mask>
<g mask="url(#mask0_797_8597)">
<path d="M310.509 1376.68C323.716 1376.68 338.224 1374.26 353.904 1369.39C403.191 1354.05 460.278 1315.3 506.618 1265.74C564.784 1203.52 593.749 1138.01 584.094 1090.47L583.173 1091.13C592.631 1137.74 563.837 1202.42 506.132 1264.14C459.883 1313.6 402.928 1352.28 353.746 1367.59C297.5 1385.1 256.25 1370.74 237.612 1327.19C208.963 1260.22 217.499 1092.81 420.882 675.474C490.847 531.915 539.647 415.905 565.942 330.72C589.263 255.137 595.432 201.933 584.252 172.537C569.625 134.08 524.968 135.779 451.504 177.584C390.208 212.47 321.69 267.594 276.362 304.081C249.516 325.673 228.233 342.809 225.878 341.381C226.72 335.841 257.868 298.763 268.181 286.503C297.632 251.444 310.128 227.981 307.497 212.692C302.696 184.822 246.201 190.879 174.684 198.585C59.7863 210.944 -97.5848 227.858 -124.668 107.884C-133.85 67.2122 -127.444 12.5312 -105.609 -54.6075C-81.2479 -129.551 -36.8936 -222.491 26.2048 -330.819L25.534 -332.173C-37.6434 -223.722 -82.0503 -130.659 -106.464 -55.5677C-128.47 12.1127 -134.902 67.36 -125.589 108.599C-113.435 162.418 -75.2631 193.858 -8.86304 204.715C48.1189 214.021 115.387 206.808 174.737 200.406C245.833 192.774 301.986 186.718 306.55 213.234C308.984 227.39 296.264 250.828 267.641 284.902C226.891 333.404 224.195 339.559 224.958 342.242C226.023 346.034 236.388 338.205 276.731 305.731C365.466 234.382 550.065 85.8496 583.436 173.595C606.902 235.293 551.959 403.718 420.146 674.218C216.302 1092.51 207.95 1260.79 236.835 1328.32C250.489 1360.23 276.007 1376.68 310.509 1376.68Z" fill="#00C6B8"/>
<path d="M318.665 1390.61C331.621 1390.61 345.761 1388.37 360.941 1383.84C411.004 1368.95 467.933 1330.47 513.248 1280.93C538.542 1253.28 558.484 1223.89 570.914 1195.94C584.699 1164.95 589.079 1136.78 583.936 1112.23L583.015 1112.9C592.565 1158.57 566.297 1220.78 512.748 1279.33C467.539 1328.74 410.728 1367.12 360.783 1382C303.788 1398.96 261.656 1383.64 242.149 1338.84C212.488 1270.74 218.815 1102.66 417.397 688.696C485.48 546.737 532.834 431.786 558.115 346.995C580.542 271.781 586.146 218.429 574.755 188.442C559.838 149.198 515.458 149.297 442.823 188.738C382.21 221.655 314.627 274.711 269.917 309.794C244.399 329.81 222.327 347.143 220.091 345.518C220.762 340.102 251.449 303.787 261.591 291.797C290.358 257.772 302.565 234.703 300 219.217C295.264 190.707 239.006 194.819 167.765 200.014C53.1172 208.385 -103.899 219.833 -131.18 96.5851C-140.335 55.2235 -134.271 0.493225 -113.159 -66.1531C-89.6138 -140.456 -46.6011 -231.969 14.6953 -338.13L14.0244 -339.484C-47.3378 -233.2 -90.4031 -141.564 -114.001 -67.1133C-135.284 0.0500488 -141.361 55.3466 -132.087 97.2744C-119.854 152.546 -81.6821 185.956 -15.3873 199.472C41.5157 211.068 108.613 206.169 167.805 201.836C238.624 196.665 294.554 192.578 299.066 219.734C301.447 234.088 289.016 257.132 261.078 290.197C221.064 337.541 218.433 343.647 219.196 346.38C220.327 350.467 233.218 340.594 270.312 311.493C357.81 242.877 539.91 99.958 573.952 189.575C597.879 252.553 544.961 420.067 416.673 687.514C217.631 1102.44 211.488 1271.38 241.4 1340.04C255.908 1373.38 282.702 1390.61 318.665 1390.61Z" fill="#B2D7FF"/>
<path d="M327.07 1404.92C339.645 1404.92 353.285 1402.87 367.846 1398.76C418.528 1384.43 475.168 1346.42 519.391 1297.06C570.48 1240.04 594.038 1180.65 584.028 1134.12L583.107 1134.81C592.92 1180.38 569.506 1238.95 518.878 1295.45C436.022 1387.95 292.449 1453.79 246.845 1350.9C226.746 1305.55 227.983 1233.17 250.528 1135.72C276.77 1022.27 331.805 876.324 414.082 701.965C480.324 561.582 526.23 447.591 550.512 363.169C572.058 288.275 577.096 234.801 565.481 204.223C550.276 164.166 506.145 162.664 434.312 199.766C374.371 230.738 307.694 281.702 263.564 315.431C238.072 334.93 216.066 351.746 214.303 349.53C214.382 344.827 245.004 308.833 255.08 296.991C283.176 263.951 295.093 241.276 292.594 225.617C287.938 196.467 231.863 198.585 160.859 201.293C46.3957 205.651 -110.344 211.584 -137.822 84.9633C-146.938 42.937 -141.216 -11.8918 -120.801 -77.9965C-98.0585 -151.659 -56.3613 -241.769 3.13306 -345.764L2.46228 -347.118C-57.0978 -243 -98.861 -152.767 -121.643 -78.932C-142.216 -12.2857 -147.964 43.0847 -138.73 85.6526C-126.418 142.402 -88.2327 177.855 -22.0037 194.03C34.8336 207.916 101.812 205.38 160.886 203.115C231.455 200.431 287.214 198.314 291.647 226.11C293.975 240.66 281.834 263.311 254.553 295.39C215.316 341.504 212.725 347.733 213.461 350.416C214.606 354.577 227.325 345.098 263.932 317.105C350.273 251.099 529.94 113.744 564.666 205.257C589.053 269.515 538.135 436.217 413.332 700.734C219.025 1112.58 215.132 1282.26 246.096 1352.11C261.512 1386.89 289.621 1404.92 327.07 1404.92Z" fill="#99CCFF"/>
<path d="M335.727 1419.64C347.829 1419.64 360.825 1417.82 374.649 1414.15C425.817 1400.53 482.076 1363.09 525.141 1314.02C572.902 1259.61 594.474 1202.07 584.333 1156.2L583.425 1156.92C593.369 1201.85 571.929 1258.55 524.641 1312.44C481.681 1361.39 425.567 1398.74 374.531 1412.33C316.549 1427.76 272.931 1410.36 251.701 1363.31C230.892 1317.19 231.155 1244.47 252.464 1147.09C277.298 1033.67 330.61 888.363 410.94 715.21C475.367 576.329 519.84 463.274 543.135 379.172C563.8 304.573 568.272 250.926 556.447 219.733C540.939 178.839 497.058 175.712 425.988 210.5C366.678 239.527 300.883 288.447 257.344 320.847C232.168 339.583 210.425 355.758 208.715 353.395C208.702 348.692 238.811 313.51 248.702 301.963C276.128 269.933 287.769 247.627 285.335 231.796C280.758 202.006 224.854 202.129 154.061 202.302C39.7026 202.622 -116.853 202.991 -144.502 72.8743C-153.578 30.2078 -148.172 -24.6948 -128.455 -90.3318C-106.501 -163.379 -66.1059 -252.061 -8.38733 -353.913L-9.05823 -355.268C-66.8557 -253.267 -107.317 -164.438 -129.31 -91.2427C-149.185 -25.1133 -154.604 30.3309 -145.423 73.539C-117.511 204.813 39.4264 204.444 154.061 204.123C224.447 203.951 280.021 203.803 284.388 232.264C286.651 246.987 274.799 269.268 248.176 300.363C209.649 345.344 207.123 351.523 207.86 354.256C209.004 358.491 221.566 349.406 257.699 322.546C342.909 259.174 520.208 127.334 555.644 220.791C580.505 286.404 531.573 452.318 410.19 713.979C220.487 1122.92 218.883 1293.44 250.938 1364.49C267.302 1400.78 296.766 1419.64 335.727 1419.64Z" fill="#003366"/>
<path d="M344.248 1434.78C406.123 1434.78 481.507 1388.74 530.557 1331.7C575.346 1279.63 595.129 1223.76 584.843 1178.41L583.935 1179.13C594.011 1223.54 574.372 1278.59 530.044 1330.12C451.793 1421.12 306.379 1484.22 256.671 1376.01C235.125 1329.11 234.388 1255.99 254.461 1158.67C277.874 1045.22 329.503 900.453 407.912 728.383C470.537 590.954 513.602 478.786 535.911 395.004C555.707 320.676 559.627 266.832 547.578 235.023C531.768 193.268 488.097 188.54 417.777 221.014C359.085 248.096 294.132 294.997 251.159 326.043C226.272 344.016 204.779 359.551 203.135 357.04C203.017 352.313 232.626 317.968 242.359 306.692C268.759 276.065 280.466 253.513 278.137 237.707C273.665 207.252 217.88 205.381 147.258 203.042C32.9784 199.226 -123.525 194.006 -151.358 60.2949C-160.381 16.9883 -155.291 -37.9882 -136.244 -103.108C-115.067 -175.515 -75.9476 -262.818 -19.9785 -362.578L-20.6625 -363.908C-76.7106 -264 -115.882 -176.55 -137.113 -103.994C-156.304 -38.3821 -161.407 17.1114 -152.279 60.9596C-124.209 195.803 32.689 201.047 147.245 204.864C217.459 207.202 272.915 209.049 277.19 238.174C279.374 253.07 267.812 274.957 241.833 305.092C204.003 348.964 201.53 355.095 202.267 357.877C203.411 362.185 215.815 353.494 251.501 327.717C335.606 266.98 510.63 140.581 546.763 236.032C572.11 302.999 525.138 468.224 407.149 727.152C221.997 1133.48 222.708 1304.93 255.921 1377.22C274.704 1418.14 307.036 1434.78 344.248 1434.78Z" fill="#1AA3FF"/>
<path d="M353.761 1450.26C364.586 1450.26 376.043 1448.91 388.079 1446.13C439.089 1434.41 495.676 1397.6 535.756 1350.06C577.861 1300.13 596.026 1245.7 585.582 1200.76L584.675 1201.5C594.908 1245.52 576.888 1299.1 535.23 1348.51C495.269 1395.9 438.826 1432.61 387.961 1444.31C329.532 1457.72 284.73 1438.13 261.803 1389.11C239.481 1341.42 237.732 1267.85 256.568 1170.51C278.561 1056.93 328.519 912.612 405.047 741.552C465.896 605.527 507.581 494.22 528.916 410.684C547.844 336.603 551.225 282.562 538.939 250.088C522.826 207.471 479.353 201.143 409.743 231.278C351.643 256.44 287.519 301.347 245.085 331.039C220.461 348.273 199.191 363.168 197.639 360.509C197.416 355.782 226.538 322.249 236.101 311.219C261.856 281.552 273.286 259.37 271.05 243.441C266.683 212.321 211.003 208.431 140.513 203.532C26.2198 195.555 -130.296 184.648 -158.301 47.2684C-167.258 3.32175 -162.47 -51.7039 -144.095 -116.331C-123.667 -188.099 -85.8104 -274.023 -31.5776 -371.715L-32.2617 -373.044C-86.5734 -275.229 -124.496 -189.133 -144.963 -117.193C-163.483 -52.0979 -168.284 3.46948 -159.221 47.9332C-130.98 186.47 25.9173 197.401 140.473 205.378C210.556 210.253 265.907 214.118 270.09 243.908C272.208 258.976 260.922 280.469 235.575 309.644C198.428 352.433 196.021 358.514 196.758 361.346C197.876 365.605 209.557 357.85 245.414 332.762C328.453 274.609 501.254 153.627 538.11 251.122C563.944 319.467 518.919 484.052 404.258 740.322C223.578 1144.31 226.656 1316.77 261.066 1390.31C279.482 1429.68 311.774 1450.26 353.761 1450.26Z" fill="#E6F7FF"/>
<path d="M363.151 1466.22C373.187 1466.22 383.75 1465.09 394.772 1462.75C445.927 1452.01 501.87 1416.12 540.766 1369.09C580.477 1321.08 597.169 1267.93 586.554 1223.29L585.646 1224.03C596.051 1267.76 579.49 1320.05 540.226 1367.54C467.026 1456.05 320.756 1515.16 267.115 1402.58C243.991 1354.05 241.189 1280.04 258.789 1182.6C279.335 1068.85 327.623 924.874 402.336 754.676C514.011 500.229 557.129 335.471 530.506 264.935C514.077 221.407 470.788 213.479 401.862 241.325C344.341 264.566 281.006 307.479 239.098 335.865C214.737 352.385 193.691 366.616 192.231 363.809C192.008 360.707 204.688 344.458 229.956 315.578C255.08 286.847 266.247 265.083 264.09 248.981C259.828 217.197 204.227 211.264 133.829 203.779C19.4572 191.617 -137.164 174.949 -165.34 33.778C-174.231 -10.7596 -169.733 -65.8592 -152.002 -129.97C-132.324 -201.121 -95.7169 -285.667 -43.1809 -381.291L-43.8649 -382.62C-96.4667 -286.848 -133.152 -202.131 -152.87 -130.807C-170.746 -66.1792 -175.244 -10.5873 -166.26 34.4673C-137.875 176.771 19.1283 193.488 133.776 205.675C203.767 213.11 259.052 218.994 263.143 249.474C265.182 264.689 254.159 285.788 229.456 314.052C192.981 355.758 190.627 361.79 191.363 364.671C192.481 369.029 204.03 361.643 239.453 337.638C321.467 282.071 492.123 166.431 529.716 266.043C556.05 335.792 512.945 499.81 401.586 753.544C326.807 923.914 278.454 1068.09 257.868 1182.03C240.15 1280.14 243.018 1354.76 266.392 1403.83C285.886 1444.73 319.638 1466.22 363.151 1466.22Z" fill="#80CFFF"/>
<path d="M372.779 1482.61C381.961 1482.61 391.537 1481.68 401.494 1479.81C452.702 1470.11 507.947 1435.2 545.672 1388.74C583.765 1341.79 598.708 1291.1 587.751 1246.02L586.856 1246.78C597.59 1290.92 582.766 1340.78 545.133 1387.16C507.539 1433.5 452.465 1468.29 401.402 1477.96C342.986 1489.02 297.251 1467.18 272.627 1416.46C248.661 1367.1 244.794 1292.57 261.144 1195C280.243 1081.01 326.886 937.281 399.797 767.847C508.21 515.861 549.421 351.596 522.298 279.657C505.54 235.217 462.435 225.64 394.154 251.22C337.172 272.566 274.613 313.484 233.218 340.566C209.081 356.348 188.246 369.987 186.891 367.008C186.562 363.931 199.019 348.051 223.892 319.812C248.385 292.016 259.289 270.646 257.211 254.421C253.067 221.947 197.506 213.97 127.173 203.876C12.6567 187.455 -144.188 164.952 -172.508 19.8662C-181.321 -25.2622 -177.112 -80.3864 -160.012 -144.004C-141.058 -214.516 -105.674 -297.707 -54.835 -391.312L-55.5322 -392.642C-106.45 -298.913 -141.913 -215.526 -160.907 -144.866C-178.125 -80.7803 -182.347 -25.1637 -173.442 20.4572C-144.912 166.651 12.3016 189.203 127.081 205.673C197.019 215.718 252.265 223.621 256.237 254.79C258.197 270.129 247.438 290.859 223.366 318.187C187.549 358.81 185.247 364.817 185.983 367.747C187.102 372.178 198.519 365.162 233.521 342.241C314.535 289.234 483.113 178.936 521.469 280.641C548.316 351.842 507.118 515.344 399.008 766.615C326.031 936.223 279.322 1080.15 260.184 1194.36C243.728 1292.62 247.661 1367.74 271.877 1417.62C292.515 1460.21 327.767 1482.61 372.779 1482.61Z" fill="#336699"/>
<path d="M382.644 1499.45C390.892 1499.45 399.429 1498.72 408.255 1497.24C459.436 1488.65 513.945 1454.79 550.486 1408.9C586.593 1363.58 600.339 1313.84 589.184 1268.91L588.29 1269.7C599.221 1313.72 585.593 1362.62 549.947 1407.38C513.537 1453.1 459.212 1486.83 408.176 1495.39C349.892 1505.19 303.775 1482.22 278.309 1430.74C253.462 1380.52 248.516 1305.45 263.603 1207.66C281.242 1093.32 326.254 949.74 397.39 780.945C502.567 531.323 541.897 367.526 514.248 294.109C497.161 248.734 454.201 237.532 386.564 260.823C330.108 280.248 268.299 319.221 227.391 345.023C203.438 360.115 182.76 373.164 181.577 369.963C181.116 366.96 193.323 351.424 217.881 323.776C241.755 296.916 252.396 275.915 250.423 259.592C246.411 226.429 190.876 216.408 120.556 203.68C5.81647 182.925 -151.331 154.514 -179.796 5.43954C-188.517 -40.2552 -184.597 -95.404 -168.115 -158.505C-149.884 -228.352 -115.698 -310.214 -66.5159 -401.825L-67.213 -403.129C-116.474 -311.395 -150.713 -229.361 -168.997 -159.318C-185.583 -95.7487 -189.529 -40.1075 -180.716 6.05505C-152.041 156.237 5.4613 184.722 120.464 205.526C190.39 218.181 245.609 228.152 249.463 260.01C251.331 275.472 240.834 295.808 217.381 322.2C182.208 361.789 179.959 367.747 180.695 370.727C181.813 375.257 193.099 368.585 227.72 346.747C307.773 296.276 474.339 191.247 513.458 295.168C540.818 367.846 501.515 530.88 396.614 779.788C325.399 948.78 280.322 1092.56 262.656 1207.14C247.464 1305.6 252.488 1381.25 277.586 1432C299.381 1476.09 336.159 1499.45 382.644 1499.45Z" fill="#004080"/>
<path d="M392.746 1516.62C451.53 1516.62 515.865 1480.03 555.26 1429.66C589.552 1385.81 602.18 1336.94 590.815 1292.06L589.92 1292.85C601.048 1336.82 588.539 1384.85 554.695 1428.13C486.322 1515.58 342.604 1561.4 284.175 1445.51C258.407 1394.4 252.33 1318.75 266.141 1220.66C282.307 1105.91 325.688 962.371 395.101 794.093C497.121 546.736 534.569 383.333 506.407 308.439C488.992 262.104 446.163 249.277 379.119 270.278C323.163 287.808 262.064 324.836 221.642 349.333C198.781 363.194 177.183 376.267 176.341 372.771C175.867 370.826 181.668 361.397 211.948 327.594C235.204 301.644 245.595 281.037 243.727 264.616C239.86 230.788 184.312 218.65 113.979 203.263C-1.05023 178.126 -158.592 143.682 -187.202 -9.50336C-195.831 -55.7151 -192.174 -110.913 -176.31 -173.497C-158.777 -242.704 -125.787 -323.236 -78.2363 -412.828L-78.9334 -414.133C-126.55 -324.369 -159.618 -243.689 -177.192 -174.285C-193.16 -111.233 -196.843 -55.592 -188.122 -8.88785C-159.303 145.406 -1.40546 179.898 113.887 205.109C183.825 220.398 239.058 232.462 242.78 265.01C244.556 280.569 234.309 300.536 211.461 326.018C176.92 364.573 174.723 370.482 175.46 373.535C176.63 378.36 189.745 370.605 221.971 351.081C301.091 303.121 465.723 203.337 505.631 309.498C533.517 383.653 496.082 546.318 394.351 792.961C324.86 961.435 281.413 1105.19 265.221 1220.19C251.317 1318.92 257.46 1395.14 283.491 1446.77C308.496 1496.43 349.089 1516.59 392.746 1516.62Z" fill="#008CBA"/>
<path d="M403.072 1534.71C460.738 1534.71 522.495 1499.75 560.035 1450.88C592.67 1408.39 604.258 1360.25 592.683 1315.35L591.788 1316.16C603.127 1360.13 591.657 1407.45 559.47 1449.35C493.135 1535.75 350.865 1578.58 290.279 1460.7C263.537 1408.68 256.316 1332.38 268.838 1233.98C283.504 1118.71 325.268 975.124 392.983 807.215C491.873 562 527.453 398.942 498.765 322.521C481.008 275.227 438.284 260.725 371.805 279.461C316.323 295.095 255.921 330.203 215.96 353.42C193.362 366.567 172 378.975 171.158 375.356C170.685 373.362 176.367 364.055 206.095 331.188C228.745 306.149 238.9 285.936 237.111 269.416C233.402 234.899 177.801 220.644 107.415 202.573C-7.98212 172.98 -166.011 132.43 -194.765 -24.9898C-203.302 -71.7186 -199.895 -126.892 -184.637 -188.959C-167.787 -257.501 -135.968 -336.704 -90.035 -424.351L-90.7454 -425.656C-136.744 -337.861 -168.642 -258.486 -185.531 -189.747C-200.895 -127.237 -204.315 -71.5955 -195.699 -24.399C-166.748 134.105 -8.36359 174.728 107.284 204.395C177.275 222.343 232.56 236.524 236.138 269.761C237.822 285.419 227.825 304.967 205.582 329.587C171.685 367.084 169.541 373.116 170.238 376.095C171.395 380.994 184.378 373.682 216.236 355.168C294.462 309.719 457.226 215.129 497.937 323.555C526.362 399.237 490.781 561.582 392.181 806.058C324.386 974.164 282.557 1117.97 267.865 1233.51C255.263 1332.58 262.564 1409.42 289.555 1461.94C316.165 1513.71 358.402 1534.71 403.072 1534.71Z" fill="#006494"/>
<path d="M413.554 1552.81C418.619 1552.81 423.788 1552.54 429.036 1552.02C479.704 1546.9 531.754 1516.47 564.835 1472.6C595.957 1431.33 606.598 1383.84 594.786 1338.86L593.905 1339.67C605.48 1383.74 594.944 1430.42 564.27 1471.09C531.32 1514.77 479.481 1545.08 428.984 1550.17C371.607 1555.93 324.596 1529.76 296.605 1476.39C268.837 1423.43 260.445 1346.44 271.665 1247.62C284.806 1131.73 324.964 987.975 391.022 820.313C486.807 577.215 520.547 414.428 491.319 336.456C473.206 288.152 430.602 272.026 364.675 288.472C309.64 302.21 249.922 335.398 210.395 357.359C188.021 369.792 166.896 381.536 166.027 377.818C165.554 375.774 171.118 366.616 200.306 334.61C222.352 310.458 232.27 290.638 230.586 274.069C227.034 238.863 171.368 222.466 100.903 201.686C-14.9152 167.538 -173.549 120.785 -202.448 -40.9683C-210.879 -88.1895 -207.723 -143.314 -193.056 -204.888C-176.877 -272.766 -146.203 -350.663 -101.874 -436.366L-102.585 -437.646C-146.992 -351.771 -177.732 -273.726 -193.951 -205.651C-208.722 -143.658 -211.892 -88.0664 -203.382 -40.402C-174.299 122.41 -15.3229 169.262 100.746 203.484C170.829 224.14 226.18 240.463 229.613 274.389C231.204 290.097 221.444 309.276 199.793 333.01C166.501 369.496 164.396 375.504 165.107 378.532C166.264 383.53 179.115 376.636 210.658 359.107C288.015 316.145 448.964 226.725 490.49 337.49C519.455 414.723 485.716 576.797 390.206 819.205C324.07 987.064 283.845 1131.07 270.679 1247.22C259.393 1346.69 267.877 1424.22 295.881 1477.67C321.518 1526.54 362.912 1552.81 413.554 1552.81Z" fill="#001F3F"/>
<path d="M424.265 1571.57C428.198 1571.57 432.17 1571.42 436.195 1571.1C486.574 1567.19 537.729 1537.94 569.692 1494.78C599.42 1454.65 609.167 1407.72 597.118 1362.59L596.237 1363.43C608.049 1407.62 598.407 1453.76 569.127 1493.28C537.308 1536.21 486.35 1565.34 436.156 1569.25C379.2 1573.69 331.991 1546.48 303.185 1492.61C274.352 1438.69 264.736 1360.99 274.628 1261.68C286.229 1145.08 324.783 1001.02 389.21 833.485C481.931 592.381 513.842 429.791 484.062 350.244C465.594 300.93 423.055 283.105 357.654 297.311C303.053 309.178 243.967 340.445 204.874 361.126C182.736 372.845 161.822 383.924 160.967 380.083C160.269 377.03 171.595 362.824 194.601 337.835C216.068 314.545 225.736 295.144 224.17 278.501C220.79 242.605 165.031 224.042 94.435 200.505C-21.8834 161.728 -181.201 108.648 -210.232 -57.5128C-218.558 -105.177 -215.638 -160.277 -201.55 -221.285C-186.029 -288.498 -156.485 -365.066 -113.723 -448.848L-114.433 -450.128C-157.275 -366.174 -186.884 -289.433 -202.445 -222.024C-216.624 -160.572 -219.558 -105.029 -211.152 -56.9465C-181.964 110.297 -22.3175 163.501 94.2509 202.351C164.465 225.74 219.922 244.23 223.184 278.846C224.67 294.627 215.16 313.388 194.088 336.26C164.584 368.266 159.191 377.055 160.033 380.822C161.19 385.943 173.91 379.443 205.124 362.923C281.639 322.423 440.865 238.149 483.233 351.302C512.75 430.136 480.839 591.987 388.395 832.402C323.875 1000.16 285.269 1144.48 273.655 1261.33C263.71 1361.29 273.418 1439.53 302.487 1493.92C329.453 1544.31 372.386 1571.57 424.265 1571.57Z" fill="#0066CC"/>
<path d="M435.156 1590.82C437.918 1590.82 440.694 1590.75 443.495 1590.6C493.506 1587.87 543.753 1559.83 574.625 1517.43C603.076 1478.36 611.968 1431.9 599.669 1386.57L598.788 1387.41C610.837 1431.83 602.05 1477.45 574.033 1515.93C543.319 1558.1 493.282 1586.02 443.456 1588.73C387.013 1591.81 339.62 1563.62 310.011 1509.35C280.047 1454.45 269.182 1375.96 277.706 1276.08C287.729 1158.69 324.664 1014.2 387.5 846.633C477.195 607.425 507.291 444.983 476.945 363.835C458.109 313.463 415.649 293.988 350.735 305.929C296.542 315.9 238.087 345.272 199.402 364.697C177.487 375.702 156.77 386.116 155.915 382.177C155.218 379.05 166.333 365.14 188.918 340.889C209.793 318.461 219.237 299.454 217.777 282.811C214.581 246.25 158.691 225.471 87.9369 199.152C-28.9603 155.673 -189.054 96.142 -218.229 -74.5485C-226.45 -122.607 -223.754 -177.657 -210.232 -238.148C-195.368 -304.672 -166.93 -379.935 -125.706 -461.846L-126.429 -463.101C-167.719 -381.043 -196.223 -305.583 -211.139 -238.862C-224.753 -177.952 -227.45 -122.484 -219.163 -74.0068C-189.791 97.7177 -29.368 157.397 87.7659 200.949C158.138 227.12 213.739 247.801 216.83 283.106C218.211 298.912 208.925 317.303 188.444 339.289C159.467 370.409 154.166 379.05 155.021 382.891C156.178 388.111 168.767 382.005 199.678 366.47C275.391 328.432 432.933 249.278 476.156 364.869C506.225 445.303 476.13 607.032 386.711 845.55C323.796 1013.36 286.795 1158.1 276.745 1275.78C268.169 1376.28 279.126 1455.31 309.327 1510.66C337.66 1562.61 382.12 1590.82 435.156 1590.82Z" fill="#9999FF"/>
<path d="M446.206 1610.59C447.785 1610.59 449.376 1610.57 450.968 1610.52C500.558 1608.97 549.871 1582.13 579.651 1540.52C606.906 1502.44 615.008 1456.37 602.446 1410.82L601.565 1411.66C613.877 1456.3 605.88 1501.55 579.046 1539.02C549.424 1580.43 500.334 1607.09 450.929 1608.65C395.065 1610.42 347.54 1581.29 317.116 1526.69C285.968 1470.77 273.801 1391.45 280.943 1290.92C289.348 1172.6 324.679 1027.56 385.949 859.804C472.645 622.418 500.939 460.074 470.041 377.277C450.837 325.845 408.416 304.648 343.962 314.348C290.151 322.448 232.287 349.924 194.01 368.118C171.359 378.877 151.813 388.159 150.945 384.121C150.261 380.92 161.152 367.33 183.329 343.744C203.639 322.152 212.846 303.564 211.504 286.897C208.492 249.646 152.444 226.627 81.493 197.477C-36.0355 149.197 -197.011 83.0676 -226.317 -92.2268C-234.42 -140.679 -231.947 -195.631 -218.991 -255.556C-204.758 -321.39 -177.412 -395.348 -137.714 -475.388L-138.437 -476.644C-178.214 -396.432 -205.627 -322.276 -219.911 -256.245C-232.96 -195.902 -235.433 -140.531 -227.264 -91.6606C-197.774 84.6925 -36.4828 150.945 81.2957 199.323C151.879 228.326 207.637 251.222 210.544 287.217C211.82 303.047 202.77 321.02 182.856 342.193C154.391 372.451 149.195 380.945 150.037 384.86C151.181 390.177 163.651 384.49 194.273 369.94C269.223 334.339 425.16 260.258 469.265 378.36C499.913 460.443 471.619 622.073 385.173 858.77C323.824 1026.78 288.441 1172.08 280.009 1290.7C272.827 1391.84 285.086 1471.68 316.471 1528.04C346.199 1581.42 392.145 1610.59 446.206 1610.59Z" fill="#00BFFF"/>
<path d="M457.411 1630.88C457.819 1630.88 458.213 1630.88 458.621 1630.88C507.737 1630.48 556.09 1604.88 584.792 1564.06C610.955 1526.88 618.294 1481.14 605.469 1435.3L604.601 1436.16C617.176 1481.11 609.929 1526 584.2 1562.58C555.643 1603.18 507.527 1628.64 458.621 1629.03C458.213 1629.03 457.819 1629.03 457.411 1629.03C402.678 1629.03 355.549 1599.12 324.572 1544.66C292.174 1487.71 278.652 1407.5 284.387 1306.24C291.135 1186.88 324.848 1041.13 384.579 873.025C468.316 637.362 494.82 475.042 463.343 390.596C443.758 338.057 401.363 315.185 337.344 322.62C283.9 328.824 226.616 354.429 188.707 371.367C166.266 381.388 146.891 390.054 146.023 385.918C145.339 382.643 156.033 369.373 177.802 346.477C197.546 325.722 206.543 307.528 205.307 290.885C202.492 252.97 146.273 227.685 75.0848 195.679C-43.1672 142.5 -205.116 69.6494 -234.567 -110.372C-242.551 -159.144 -240.302 -213.998 -227.885 -273.356C-214.271 -338.476 -187.99 -411.155 -149.791 -489.372L-150.515 -490.628C-188.805 -412.262 -215.139 -339.387 -228.806 -274.046C-241.302 -214.268 -243.564 -159.021 -235.514 -109.83C-205.892 71.1758 -43.6276 144.149 74.8481 197.452C145.668 229.31 201.611 254.472 204.333 291.131C205.504 306.937 196.678 324.516 177.329 344.876C149.377 374.273 144.273 382.643 145.115 386.607C146.26 392.024 158.611 386.755 188.944 373.189C263.144 340.026 417.555 270.992 462.541 391.679C493.768 475.436 467.263 637.042 383.763 872.04C323.94 1040.39 290.175 1186.44 283.4 1306.07C277.639 1407.92 291.253 1488.65 323.888 1546.01C355.049 1600.77 402.429 1630.88 457.411 1630.88Z" fill="#00C6B8"/>
<path d="M468.619 1651.68C516.446 1651.68 562.826 1627.43 590.068 1588.01C615.204 1551.67 621.821 1506.23 608.72 1460.04L607.852 1460.9C620.703 1506.2 614.178 1550.81 589.463 1586.54C561.971 1626.3 514.802 1650.55 466.475 1649.81C411.927 1648.97 364.284 1618.22 332.32 1563.22C298.607 1505.22 283.691 1424.04 287.966 1321.97C293.017 1201.45 325.099 1054.87 383.331 886.245C464.147 652.207 488.863 489.888 456.807 403.742C436.84 350.071 394.445 325.5 330.847 330.67C277.746 334.979 221 358.737 183.46 374.444C161.217 383.751 142.012 391.777 141.157 387.518C140.473 384.169 150.97 371.195 172.345 348.963C191.523 329.02 200.31 311.245 199.178 294.626C196.574 256.071 140.131 228.472 68.6672 193.537C-50.3609 135.36 -213.375 55.64 -242.971 -129.158C-259.413 -231.823 -232.145 -357.927 -161.944 -503.923L-162.681 -505.154C-199.498 -428.586 -224.792 -356.991 -237.841 -292.388C-249.798 -233.202 -251.85 -178.102 -243.918 -128.616C-214.164 57.1664 -50.8344 137.034 68.4172 195.334C139.513 230.097 195.68 257.549 198.192 294.872C199.257 310.679 190.642 327.839 171.858 347.387C144.406 375.922 139.408 384.169 140.223 388.207C141.355 393.746 154.364 388.552 183.67 376.291C257.173 345.541 410.098 281.553 456.005 404.85C487.811 490.306 463.095 651.961 382.515 885.309C324.205 1054.18 292.057 1201.06 286.993 1321.9C282.691 1424.56 297.713 1506.25 331.663 1564.65C363.81 1619.97 411.69 1650.89 466.475 1651.73C467.186 1651.68 467.909 1651.68 468.619 1651.68Z" fill="#99E6FF"/>
<path d="M479.828 1673.03C525.918 1673.03 569.852 1650.13 595.488 1612.41C619.665 1576.86 625.61 1531.63 612.207 1485.05L611.339 1485.94C624.479 1531.61 618.626 1576.02 594.87 1610.96C568.431 1649.86 522.341 1672.85 474.54 1671.08C420.754 1669.04 373.125 1637.57 340.411 1582.5C305.317 1523.41 288.928 1441.23 291.716 1338.24C295.018 1216.45 325.456 1068.85 382.201 899.565C460.123 667.078 483.064 504.66 450.416 416.791C430.041 361.987 387.66 335.668 324.43 338.573C271.644 341.011 215.425 362.873 178.226 377.35C156.18 385.942 137.147 393.353 136.279 388.946C135.608 385.524 145.907 372.844 166.887 351.277C185.526 332.148 194.089 314.79 193.076 298.197C190.696 259.002 134.003 229.064 62.2495 191.173C-57.6336 127.875 -221.818 41.1638 -251.572 -148.533C-267.751 -251.667 -241.72 -376.318 -174.202 -519.04L-174.938 -520.271C-210.322 -445.475 -234.578 -375.16 -247.034 -311.272C-258.465 -252.676 -260.306 -197.749 -252.506 -148.016C-222.581 42.6902 -58.0939 129.55 62.0127 192.971C133.424 230.689 189.814 260.454 192.129 298.443C193.09 314.2 184.684 330.966 166.44 349.702C139.475 377.399 134.569 385.499 135.371 389.611C136.489 395.249 149.38 390.497 178.449 379.172C251.269 350.834 402.799 291.845 449.627 417.85C482.038 505.054 459.071 666.807 381.385 898.604C324.548 1068.19 294.058 1216.08 290.743 1338.17C287.941 1441.75 304.436 1524.42 339.767 1583.9C372.651 1639.27 420.518 1670.88 474.54 1672.95C476.302 1673 478.065 1673.03 479.828 1673.03Z" fill="#00509E"/>
<path d="M491.084 1694.91C535.386 1694.91 576.952 1673.3 601.049 1637.25C624.331 1602.42 629.619 1557.36 615.926 1510.39L615.058 1511.27C628.488 1557.39 623.292 1601.6 600.431 1635.83C575.018 1673.84 529.967 1695.7 482.85 1692.82C429.893 1689.6 382.329 1657.54 348.905 1602.51C312.338 1542.32 294.436 1459.05 295.685 1355.06C297.172 1231.84 325.952 1083.08 381.25 912.909C456.306 681.899 477.496 519.333 444.244 429.692C423.461 373.706 381.079 345.664 318.178 346.279C265.682 346.821 209.976 366.837 173.106 380.083C151.244 387.937 132.356 394.732 131.501 390.226C130.488 384.933 153.862 361.224 161.544 353.444C179.643 335.102 187.996 318.139 187.101 301.643C184.944 261.808 127.989 229.507 55.8799 188.588C-64.9108 120.071 -230.358 26.2195 -260.27 -168.475C-276.186 -272.002 -251.365 -395.201 -186.504 -534.649L-187.254 -535.855C-221.217 -462.832 -244.472 -393.773 -256.35 -330.623C-267.268 -272.618 -268.899 -217.888 -261.23 -167.958C-231.161 27.6967 -65.4106 121.721 55.6036 190.361C127.357 231.058 184.037 263.212 186.128 301.84C186.983 317.523 178.788 333.871 161.083 351.844C134.605 378.704 129.777 386.681 130.58 390.866C131.685 396.627 144.47 392.27 173.303 381.929C245.478 355.98 395.667 302.013 443.441 430.751C476.457 519.727 455.253 681.628 380.422 911.948C325.045 1082.39 296.198 1231.47 294.712 1355.01C293.449 1459.57 311.47 1543.33 348.261 1603.89C381.856 1659.19 429.643 1691.44 482.824 1694.67C485.586 1694.84 488.348 1694.91 491.084 1694.91Z" fill="#4DB8FF"/>
<path d="M502.382 1717.34C544.868 1717.34 584.158 1696.96 606.783 1662.54C629.223 1628.39 633.88 1583.46 619.884 1535.99L619.016 1536.88C632.761 1583.46 628.184 1627.58 606.165 1661.09C559.614 1731.92 434.811 1747.23 357.796 1623.27C319.69 1561.94 300.196 1477.54 299.854 1372.42C299.459 1247.62 326.569 1097.53 380.42 926.278C452.648 696.647 472.089 533.884 438.218 442.47C389.115 309.941 239.794 359.058 168.027 382.668C146.324 389.808 127.593 395.963 126.738 391.334C125.738 385.918 148.691 362.972 156.228 355.414C173.788 337.835 181.957 321.315 181.168 304.893C179.247 264.443 121.989 229.704 49.5121 185.757C-72.2782 111.873 -239.081 10.7092 -269.176 -189.008C-284.816 -292.831 -261.179 -414.552 -198.922 -550.799L-199.672 -552.006C-232.254 -480.706 -254.523 -412.903 -265.835 -350.516C-276.24 -293.126 -277.687 -238.618 -270.137 -188.516C-239.883 12.1617 -72.7912 113.522 49.2227 187.53C121.358 231.28 178.34 265.846 180.208 305.091C180.944 320.7 172.96 336.629 155.781 353.813C129.855 379.763 125.054 387.814 125.817 391.974C126.909 397.859 139.602 393.944 168.211 384.515C239.768 360.978 388.668 311.984 437.415 443.553C471.05 534.327 451.595 696.425 379.579 925.391C325.622 1096.92 298.473 1247.32 298.867 1372.47C299.209 1478.14 318.808 1563 357.151 1624.7C391.404 1679.82 439.073 1712.59 491.346 1716.92C495.042 1717.2 498.725 1717.34 502.382 1717.34Z" fill="#66D9FF"/>
<path d="M514.273 1740.34C555.103 1740.34 591.21 1721.45 612.703 1688.22C634.354 1654.71 638.405 1609.85 624.081 1561.89L623.226 1562.8C637.287 1609.9 633.315 1653.92 612.071 1686.81C562.548 1763.43 439.797 1759.12 367.123 1644.84C327.938 1583.24 306.208 1495.25 304.248 1390.39C301.893 1263.87 327.293 1112.23 379.75 939.744C449.162 711.418 466.881 548.385 432.378 455.149C382.276 319.739 234.178 363.882 163.003 385.105C140.576 391.777 122.871 397.07 122.029 392.319C121.043 386.804 143.575 364.572 150.981 357.26C168.028 340.444 175.986 324.318 175.315 308.02C173.631 266.953 116.057 229.777 43.1595 182.704C-79.6962 103.354 -247.959 -5.29443 -278.239 -210.133C-293.615 -314.152 -271.136 -434.396 -211.418 -567.492L-212.167 -568.674C-243.407 -499.048 -264.69 -432.501 -275.45 -370.877C-285.355 -314.128 -286.617 -259.865 -279.186 -209.64C-248.761 -3.86652 -80.2355 104.954 42.8307 184.427C115.387 231.279 172.697 268.283 174.329 308.143C174.96 323.629 167.173 339.164 150.52 355.61C125.068 380.747 120.346 388.675 121.095 392.885C122.161 398.867 134.762 395.396 163.161 386.927C234.139 365.778 381.815 321.733 431.563 456.207C465.828 548.803 448.097 711.197 378.882 938.833C326.346 1111.64 300.894 1263.57 303.261 1390.46C305.221 1495.86 327.083 1584.3 366.478 1646.26C401.362 1701.12 448.82 1734.28 500.133 1739.62C504.908 1740.09 509.617 1740.34 514.273 1740.34Z" fill="#0099FF"/>
<path d="M525.679 1763.88C564.614 1763.88 598.669 1746.05 618.807 1714.36C639.722 1681.47 643.168 1636.64 628.528 1588.14L627.673 1589.05C642.05 1636.69 638.682 1680.68 618.176 1712.96C595.433 1748.73 554.722 1766.71 509.276 1761.02C459.226 1754.74 412.215 1721.45 376.923 1667.24C323.572 1585.31 252.91 1383.62 379.212 953.262C445.862 726.167 461.831 562.788 426.71 467.706C375.608 329.366 228.668 368.536 158.058 387.371C135.789 393.304 118.203 398.007 117.361 393.107C116.401 387.469 138.512 365.951 145.786 358.886C162.32 342.809 170.081 327.126 169.528 310.926C168.095 269.293 110.166 229.606 36.8205 179.381C-87.1929 94.4174 -256.981 -21.8629 -287.485 -231.896C-302.612 -336.039 -281.263 -454.756 -224.031 -584.775L-224.794 -585.956C-254.706 -518.005 -275.054 -452.688 -285.262 -391.828C-294.68 -335.694 -295.745 -281.727 -288.445 -231.428C-257.797 -20.4595 -87.7322 96.0177 36.4521 181.08C109.455 231.083 167.121 270.574 168.516 311.024C169.042 326.387 161.452 341.504 145.299 357.211C120.294 381.536 115.664 389.365 116.401 393.624C117.453 399.73 129.962 396.677 158.177 389.143C228.589 370.383 375.121 331.311 425.881 468.715C460.778 563.182 444.783 725.896 378.331 952.326C327.189 1126.61 303.486 1280.29 307.893 1409.08C311.549 1515.78 335.2 1605.54 376.292 1668.62C411.741 1723.06 458.95 1756.51 509.197 1762.79C514.774 1763.53 520.273 1763.88 525.679 1763.88Z" fill="#0A3D62"/>
<path d="M537.056 1787.95C574.136 1787.95 606.218 1771.11 625.081 1740.93C645.285 1708.6 648.165 1663.77 633.196 1614.7L632.341 1615.61C651.204 1677.41 638.458 1717.12 624.449 1739.53C602.706 1774.31 563.14 1791.23 518.627 1784.75C469.696 1777.64 423.026 1744.18 387.222 1690.51C331.331 1606.75 255.921 1401.35 378.803 966.802C442.704 740.84 456.963 577.092 421.185 480.114C369.043 338.77 223.208 372.968 153.125 389.414C131 394.609 113.519 398.695 112.69 393.673C111.743 387.936 133.46 367.108 140.589 360.288C156.624 344.925 164.2 329.661 163.753 313.633C162.582 271.435 104.259 229.211 30.4268 175.761C-94.7441 85.1351 -266.177 -38.999 -296.904 -254.227C-311.781 -358.394 -291.537 -475.586 -236.739 -602.551L-237.502 -603.708C-266.124 -537.382 -285.539 -473.32 -295.22 -413.248C-304.151 -357.779 -305.046 -304.107 -297.851 -253.759C-267.005 -37.6202 -95.3096 86.7108 30.0717 177.485C103.575 230.713 161.635 272.74 162.766 313.732C163.187 328.972 155.795 343.645 140.142 358.663C115.584 382.2 111.033 389.906 111.756 394.239C112.782 400.468 125.213 397.834 153.256 391.26C223.142 374.863 368.583 340.765 420.382 481.172C455.924 577.535 441.652 740.618 377.935 965.94C254.724 1401.67 330.477 1607.83 386.603 1691.96C422.566 1745.85 469.419 1779.46 518.548 1786.6C524.823 1787.51 531.005 1787.95 537.056 1787.95Z" fill="#002B40"/>
<path d="M548.435 1812.6C583.7 1812.6 613.915 1796.67 631.58 1767.94C651.126 1736.15 653.455 1691.27 638.131 1641.56L637.276 1642.5C656.572 1705.11 644.484 1744.5 630.935 1766.53C588.607 1835.4 475.287 1827.64 398.049 1714.73C339.462 1629.08 259.027 1419.81 378.529 980.442C439.707 755.538 452.255 591.372 415.819 492.473C362.626 348.077 217.83 377.301 148.246 391.334C126.253 395.766 108.877 399.287 108.062 394.141C107.141 388.282 128.45 368.167 135.461 361.569C150.995 346.92 158.388 332.074 158.046 316.219C157.138 273.503 98.4069 228.67 24.0488 171.946C-102.372 75.4598 -275.54 -56.6757 -306.518 -277.197C-321.144 -381.315 -301.979 -496.955 -249.575 -620.942L-250.351 -622.099C-277.711 -557.373 -296.231 -494.518 -305.386 -435.257C-313.857 -380.429 -314.554 -327.102 -307.491 -276.754C-276.369 -55.3216 -102.937 77.0109 23.6937 173.644C97.7228 230.123 156.191 274.734 157.072 316.293C157.388 331.36 150.18 345.64 135.027 359.944C110.916 382.693 106.431 390.276 107.128 394.683C108.127 401.035 120.492 398.819 148.365 393.206C217.764 379.197 362.152 350.047 415.017 493.557C451.229 591.84 438.654 755.39 377.66 979.629C329.255 1157.58 309.169 1315.35 317.956 1448.49C325.203 1558.2 352.682 1650.77 397.444 1716.21C433.84 1769.41 480.273 1803.05 528.192 1810.92C535.084 1812.03 541.845 1812.6 548.435 1812.6Z" fill="#00C6B8"/>
<path d="M559.812 1837.78C593.301 1837.78 621.753 1822.72 638.287 1795.39C657.202 1764.1 658.978 1719.14 643.312 1668.79L642.457 1669.73C658.096 1719.95 656.426 1762.94 637.629 1794.01C617.833 1826.75 580.687 1841.67 538.24 1833.94C491.794 1825.47 446.072 1792.09 409.465 1739.92C348.01 1652.32 262.248 1438.94 378.409 994.155C436.89 770.212 447.729 605.553 410.635 504.734C356.35 357.187 212.54 381.437 143.417 393.107C121.543 396.8 104.272 399.705 103.47 394.437C102.575 388.479 123.49 369.054 130.369 362.677C145.43 348.717 152.638 334.29 152.401 318.632C151.757 275.399 92.5914 227.956 17.6941 167.883C-110.068 65.4397 -285.065 -74.8943 -316.318 -300.758C-330.709 -404.729 -312.609 -518.842 -262.507 -639.899L-263.283 -641.031C-289.419 -577.881 -307.045 -516.208 -315.7 -457.76C-323.711 -403.596 -324.237 -350.638 -317.266 -300.315C-285.881 -73.5649 -110.647 66.9415 17.3126 169.558C91.8943 229.36 150.81 276.605 151.428 318.656C151.652 333.551 144.628 347.388 129.948 361.003C106.271 382.964 101.865 390.448 102.536 394.905C103.509 401.404 115.808 399.607 143.523 394.929C212.448 383.308 355.876 359.107 409.833 505.768C446.716 606.021 435.838 770.064 377.541 993.343C330.49 1173.51 312.285 1333.64 323.439 1469.27C332.594 1580.68 362.151 1674.78 408.886 1741.4C445.624 1793.76 491.544 1827.3 538.161 1835.79C545.54 1837.12 552.788 1837.78 559.812 1837.78Z" fill="#B3E0FF"/>
<path d="M571.401 1863.46C602.917 1863.46 629.606 1849.53 645.193 1823.31C663.503 1792.51 664.753 1747.43 648.719 1696.42L647.864 1697.35C663.872 1748.26 662.714 1791.35 644.536 1821.93C606.298 1886.26 500.542 1875.9 421.501 1766.14C356.982 1676.55 265.59 1458.88 378.436 1007.94C434.247 784.909 443.389 619.684 405.612 516.896C350.221 366.123 207.319 385.425 138.643 394.707C116.887 397.637 99.6953 399.975 98.9193 394.535C98.0511 388.453 118.584 369.742 125.332 363.587C139.919 350.292 146.944 336.308 146.812 320.822C146.444 277.122 86.8178 226.995 11.3154 163.525C-117.828 54.9509 -294.719 -93.7539 -326.301 -324.985C-340.468 -428.734 -323.394 -541.272 -275.567 -659.472L-276.357 -660.58C-324.381 -541.912 -341.507 -428.857 -327.261 -324.517C-295.561 -92.4244 -118.42 56.4774 10.934 165.199C86.1075 228.399 145.497 278.304 145.852 320.847C145.97 335.545 139.13 348.963 124.924 361.913C101.668 383.111 97.3408 390.472 97.9854 395.002C98.9324 401.625 111.165 400.246 138.736 396.529C207.214 387.272 349.734 368.043 404.809 517.93C442.376 620.152 433.195 784.761 377.555 1007.15C331.859 1189.79 315.601 1352.52 329.241 1490.86C340.409 1604.11 372.109 1699.81 420.922 1767.62C468.197 1833.28 525.021 1863.46 571.401 1863.46Z" fill="#33CCFF"/>
<path d="M582.568 1889.88C612.69 1889.88 637.879 1876.41 652.335 1851.67C670.08 1821.31 670.803 1776.11 654.387 1724.36L653.545 1725.29C669.922 1776.95 669.277 1820.18 651.664 1850.29C633.788 1880.87 599.207 1894.02 559.154 1885.45C515.563 1876.12 471.182 1843.42 434.181 1793.39C379.619 1719.61 264.984 1496.72 378.58 1021.83C431.747 799.607 439.192 633.766 400.731 528.959C344.196 374.912 202.162 389.216 133.907 396.109C112.243 398.301 95.1433 400.024 94.3804 394.46C93.5386 388.28 113.69 370.234 120.32 364.3C134.447 351.646 141.3 338.105 141.273 322.84C141.195 278.672 81.0688 225.813 4.93506 158.896C-125.681 44.0682 -304.585 -113.18 -336.496 -349.827C-350.452 -453.28 -334.392 -564.243 -288.761 -679.637L-289.551 -680.745C-335.365 -564.883 -351.478 -453.404 -337.456 -349.384C-305.414 -111.875 -126.273 45.6192 4.52722 160.595C80.3322 227.241 140.221 279.879 140.3 322.865C140.326 337.342 133.657 350.365 119.912 362.651C97.0769 383.085 92.8151 390.348 93.4465 394.928C94.3672 401.674 106.534 400.738 133.986 397.956C202.07 391.087 343.736 376.807 399.941 529.993C438.192 634.259 430.721 799.484 377.698 1021.06C333.357 1206.43 319.125 1372.05 335.396 1513.29C348.668 1628.54 382.644 1725.91 433.628 1794.87C470.761 1845.09 515.313 1877.91 559.075 1887.27C567.138 1889.04 575.004 1889.88 582.568 1889.88Z" fill="#004F73"/>
<path d="M594.605 1916.89C623.004 1916.89 646.062 1904.26 659.703 1880.52C676.895 1850.61 677.118 1805.24 660.321 1752.72L659.479 1753.66C676.25 1806.1 676.092 1849.48 659.032 1879.17C624.898 1938.53 527.205 1926.61 447.559 1821.78C390.222 1746.3 268.734 1518.63 378.897 1035.84C429.434 814.33 435.208 647.85 396.036 540.975C338.344 383.554 197.099 392.91 129.226 397.415C107.654 398.843 90.6198 399.976 89.8832 394.264C89.0677 387.986 108.864 370.604 115.362 364.892C129.042 352.878 135.724 339.755 135.79 324.712C135.987 280.126 75.3351 224.509 -1.44318 154.071C-133.586 32.8423 -314.568 -133.17 -346.873 -375.234C-360.632 -478.294 -345.545 -587.68 -302.072 -700.341L-302.874 -701.425C-346.531 -588.296 -361.671 -478.417 -347.833 -374.791C-315.423 -131.89 -134.204 34.3442 -1.87726 155.721C74.5985 225.863 135.001 281.283 134.803 324.688C134.737 338.918 128.24 351.524 114.941 363.193C92.514 382.89 88.3179 390.005 88.923 394.658C89.8174 401.527 101.932 401.034 129.252 399.213C196.955 394.732 337.818 385.401 395.208 541.984C434.169 648.293 428.368 814.183 377.976 1035.07C334.99 1223.47 322.849 1392.21 341.909 1536.63C361.468 1684.97 409.848 1774.36 446.981 1823.23C484.127 1872.13 527.823 1904.33 570.007 1913.93C578.557 1915.93 586.778 1916.89 594.605 1916.89Z" fill="#0073E6"/>
<path d="M605.405 1944.34C632.541 1944.34 654.626 1932.25 667.307 1909.85C683.986 1880.35 683.696 1834.76 666.504 1781.45L665.662 1782.41C682.828 1835.64 683.17 1879.24 666.623 1908.49C634.791 1964.8 542.78 1955.12 461.635 1851.25C401.338 1774.07 272.616 1541.48 379.332 1049.89C427.277 829.053 431.355 661.834 391.473 552.891C332.584 392.023 192.089 396.406 124.558 398.523C103.078 399.188 86.0961 399.729 85.3857 393.895C84.6097 387.518 104.038 370.801 110.417 365.311C123.65 353.912 130.174 341.208 130.332 326.436C130.832 281.48 69.6275 223.007 -7.86108 148.975C-141.582 21.1971 -324.747 -153.777 -357.461 -401.282C-371.022 -503.898 -356.908 -611.709 -315.514 -721.687L-316.316 -722.745C-357.882 -612.3 -372.048 -503.997 -358.421 -400.839C-325.589 -152.522 -142.2 22.6743 -8.29517 150.6C68.8777 224.337 129.845 282.563 129.359 326.387C129.201 340.371 122.874 352.558 110.023 363.637C88.0034 382.569 83.873 389.586 84.4387 394.313C85.2936 401.305 97.3556 401.231 124.584 400.394C191.931 398.277 332.071 393.919 390.671 553.974C430.355 662.376 426.238 829.004 378.424 1049.23C336.806 1240.92 326.862 1413.09 348.855 1560.96C371.361 1712.25 422.305 1803.17 461.083 1852.8C510.422 1915.93 563.813 1944.34 605.405 1944.34Z" fill="#0080FF"/>
<path d="M617.426 1972.43C642.825 1972.43 663.214 1961.08 675.144 1939.66C686.588 1919.08 695.506 1879.98 672.947 1810.6L672.106 1811.56C689.692 1865.63 690.495 1909.48 674.46 1938.31C659.136 1965.86 629.501 1976.47 593.144 1967.43C554.511 1957.81 513.077 1927.43 476.457 1881.88C413.043 1802.97 276.691 1565.34 379.922 1064.1C425.289 843.825 427.696 675.818 387.078 564.782C326.965 400.394 187.141 399.779 119.952 399.483C98.5242 399.385 81.6086 399.311 80.9246 393.328C80.1879 386.853 99.2477 370.801 105.509 365.508C118.321 354.724 124.674 342.414 124.924 327.913C125.713 282.612 63.9299 221.259 -14.2822 143.583C-149.66 9.13336 -335.088 -175 -368.262 -427.946C-381.653 -530.045 -368.486 -636.255 -329.103 -743.623L-329.919 -744.657C-369.459 -636.822 -382.678 -530.119 -369.222 -427.478C-335.943 -173.769 -150.292 10.6105 -14.7425 145.208C63.167 222.589 124.7 283.696 123.937 327.864C123.701 341.602 117.545 353.37 105.101 363.834C82.2005 383.111 79.4777 389.586 79.9512 393.722C80.7667 400.862 92.8024 401.207 119.939 401.33C186.957 401.625 326.426 402.241 386.249 565.816C426.67 676.335 424.224 843.776 378.988 1063.44C338.764 1258.75 331.108 1434.61 356.219 1586.14C381.816 1740.61 435.431 1833.03 475.892 1883.4C512.63 1929.12 554.222 1959.6 592.999 1969.25C601.536 1971.4 609.717 1972.43 617.426 1972.43Z" fill="#6699CC"/>
<path d="M628.897 2001.09C652.903 2001.09 672.081 1990.33 683.222 1969.97C694.337 1949.66 702.729 1910.63 679.644 1840.17L678.802 1841.13C696.81 1896.08 698.086 1940.18 682.525 1968.64C668.122 1994.98 639.92 2004.98 605.168 1996.07C568.377 1986.64 528.192 1957.36 492.019 1913.64C439.97 1850.73 278.127 1604.63 380.634 1078.4C423.449 858.622 424.186 689.803 382.817 576.6C321.442 408.618 182.249 403.005 115.349 400.296C93.1458 399.41 77.1115 398.745 76.4669 392.64C75.7698 386.066 94.4744 370.654 100.63 365.582C113.021 355.365 119.216 343.498 119.545 329.268C120.624 283.647 61.3401 222.54 -20.726 137.97C-157.827 -3.32391 -345.597 -196.812 -379.283 -455.249C-392.516 -556.782 -380.27 -661.417 -342.848 -766.248L-343.663 -767.282C-381.23 -662.007 -393.542 -556.855 -380.23 -454.805C-365.275 -340.027 -319.013 -228.104 -238.802 -112.686C-170.218 -13.9844 -87.5864 71.1516 -21.1864 139.571C57.486 220.644 119.637 284.681 118.585 329.169C118.269 342.636 112.271 353.986 100.249 363.883C82.0835 378.852 74.9147 387.272 75.5198 392.984C76.2959 400.247 88.2921 401.035 115.349 402.143C182.078 404.826 320.929 410.44 382.015 577.634C423.186 690.32 422.41 858.598 379.713 1077.76C340.909 1276.99 335.635 1456.86 364.06 1612.39C392.919 1770.25 449.283 1864.2 491.48 1915.21C527.771 1959.06 568.101 1988.43 605.023 1997.91C613.402 2000.03 621.386 2001.09 628.897 2001.09Z" fill="#0033CC"/>
</g>
</svg>
